<?xml version="1.0" encoding="utf-8"?>
<!-- Generator: Adobe Illustrator 23.0.1, SVG Export Plug-In . SVG Version: 6.00 Build 0)  -->
<svg version="1.1" id="Ebene_1" xmlns="http://www.w3.org/2000/svg" xmlns:xlink="http://www.w3.org/1999/xlink" x="0px" y="0px"
	 viewBox="0 0 841.89 296.21" style="enable-background:new 0 0 841.89 296.21;" xml:space="preserve">
<style type="text/css">
	.st0{fill:#F39000;}
	.st1{fill:#FFFFFF;}
</style>
<g>
	<path class="st0" d="M168.36,38.67c-60.44,0-109.44,48.99-109.44,109.44c0,60.44,49,109.44,109.44,109.44
		c60.44,0,109.44-49,109.44-109.44C277.79,87.66,228.8,38.67,168.36,38.67 M168.36,241.74c-51.71,0-93.64-41.93-93.64-93.64
		c0-51.72,41.93-93.64,93.64-93.64c51.72,0,93.64,41.92,93.64,93.64C262,199.82,220.08,241.74,168.36,241.74"/>
	<polygon class="st1" points="236.55,106.37 172.3,106.37 172.3,122.16 195.38,122.16 195.38,189.84 213.47,189.84 213.47,122.15 
		236.55,122.15 	"/>
	<polygon class="st1" points="164.4,122.14 164.4,106.37 105.44,106.37 105.44,106.38 105.44,189.84 164.4,189.84 164.4,174.08 
		123.52,174.08 123.52,155.05 163.53,155.05 163.53,139.43 123.52,139.43 123.52,122.14 	"/>
	<g>
		<path class="st1" d="M361.86,145.52h30.01v34.65c-3.26,3.1-7.58,5.82-12.93,8.16c-5.36,2.34-12.22,3.52-20.59,3.52
			c-6.86,0-13-1.13-18.39-3.39s-9.98-5.34-13.75-9.23c-3.77-3.89-6.65-8.47-8.66-13.75s-3.01-10.96-3.01-17.08
			c0-6.11,1.05-11.84,3.14-17.2c2.09-5.36,5.04-10.04,8.85-14.06c3.81-4.02,8.35-7.2,13.62-9.54c5.27-2.34,11.09-3.52,17.45-3.52
			c4.1,0,7.87,0.44,11.3,1.32c3.43,0.88,6.55,2.07,9.35,3.58c2.8,1.51,5.29,3.29,7.47,5.34c2.18,2.05,4.1,4.25,5.78,6.59
			l-11.17,9.92c-2.68-3.85-5.8-6.95-9.35-9.29c-3.56-2.34-8.02-3.52-13.37-3.52c-4.1,0-7.78,0.82-11.05,2.45
			c-3.26,1.63-6.05,3.81-8.35,6.53c-2.3,2.72-4.06,5.9-5.27,9.54c-1.21,3.64-1.82,7.47-1.82,11.49c0,4.52,0.73,8.58,2.2,12.18
			c1.46,3.6,3.47,6.7,6.03,9.29c2.55,2.6,5.52,4.58,8.91,5.96s6.97,2.07,10.73,2.07c7.7,0,13.64-1.84,17.83-5.52v-13.06h-14.94
			V145.52z"/>
		<path class="st1" d="M408.56,106.1h15.82v69.68h41.31v14.06h-57.13V106.1z"/>
		<path class="st1" d="M513.9,192.1c-6.11,0-11.8-1.15-17.08-3.45c-5.27-2.3-9.88-5.46-13.81-9.48c-3.94-4.02-7.03-8.7-9.29-14.06
			c-2.26-5.36-3.39-11.09-3.39-17.2c0-6.11,1.13-11.84,3.39-17.2c2.26-5.36,5.34-10.02,9.23-14c3.89-3.97,8.5-7.11,13.81-9.42
			c5.31-2.3,11.03-3.45,17.14-3.45c6.11,0,11.8,1.15,17.08,3.45c5.27,2.3,9.88,5.44,13.81,9.42c3.93,3.98,7.03,8.64,9.29,14
			c2.26,5.36,3.39,11.09,3.39,17.2c0,6.11-1.13,11.85-3.39,17.2c-2.26,5.36-5.36,10.04-9.29,14.06c-3.94,4.02-8.54,7.18-13.81,9.48
			C525.71,190.95,520.01,192.1,513.9,192.1z M513.9,177.16c4.1,0,7.83-0.79,11.17-2.39c3.35-1.59,6.19-3.75,8.54-6.47
			c2.34-2.72,4.14-5.88,5.4-9.48c1.26-3.6,1.88-7.36,1.88-11.3c0-4.02-0.63-7.8-1.88-11.36c-1.26-3.56-3.06-6.67-5.4-9.35
			c-2.34-2.68-5.19-4.79-8.54-6.34c-3.35-1.55-7.07-2.32-11.17-2.32c-4.19,0-7.93,0.77-11.24,2.32c-3.31,1.55-6.13,3.66-8.48,6.34
			c-2.34,2.68-4.14,5.8-5.4,9.35c-1.26,3.56-1.88,7.35-1.88,11.36c0,3.94,0.63,7.7,1.88,11.3c1.25,3.6,3.05,6.76,5.4,9.48
			c2.34,2.72,5.17,4.88,8.48,6.47C505.97,176.37,509.72,177.16,513.9,177.16z"/>
		<path class="st1" d="M571.79,106.1h28.75c4.44,0,8.35,0.57,11.74,1.69c3.39,1.13,6.21,2.67,8.47,4.64s3.97,4.26,5.15,6.89
			c1.17,2.63,1.76,5.5,1.76,8.59c0,2.93-0.54,5.48-1.63,7.65c-1.09,2.17-2.37,3.99-3.83,5.45c-1.47,1.46-2.93,2.55-4.39,3.26
			c-1.47,0.71-2.62,1.07-3.45,1.07c1.51,0.17,3.26,0.63,5.27,1.38c2.01,0.76,3.91,1.93,5.71,3.52c1.8,1.59,3.33,3.67,4.58,6.22
			c1.25,2.56,1.88,5.68,1.88,9.37c0,4.53-0.8,8.32-2.39,11.38c-1.59,3.06-3.79,5.53-6.59,7.42c-2.8,1.89-6.11,3.23-9.92,4.02
			c-3.81,0.8-7.93,1.19-12.37,1.19h-28.75V106.1z M599.78,139.49c1.59,0,3.14-0.17,4.65-0.5c1.51-0.33,2.87-0.92,4.08-1.76
			c1.21-0.84,2.18-1.88,2.89-3.14c0.71-1.26,1.07-2.84,1.07-4.77c0-1.92-0.38-3.52-1.13-4.77c-0.75-1.26-1.74-2.26-2.95-3.01
			c-1.21-0.75-2.57-1.28-4.08-1.57c-1.51-0.29-3.01-0.44-4.52-0.44h-12.81v19.96H599.78z M600.41,176.41c1.51,0,3.16-0.1,4.96-0.31
			c1.8-0.21,3.49-0.71,5.08-1.51c1.59-0.79,2.93-1.97,4.02-3.52c1.09-1.55,1.63-3.66,1.63-6.34c0-2.51-0.52-4.54-1.57-6.09
			c-1.05-1.55-2.34-2.76-3.89-3.64c-1.55-0.88-3.24-1.49-5.08-1.82c-1.84-0.33-3.56-0.5-5.15-0.5h-13.43v23.73H600.41z"/>
		<path class="st1" d="M667.83,106.1h16.32l31.77,83.75h-17.58l-7.28-21.22h-31.14l-7.28,21.22h-16.57L667.83,106.1z M686.54,155.57
			l-11.05-32.52l-11.18,32.52H686.54z"/>
		<path class="st1" d="M725.84,106.1h15.82v69.68h41.31v14.06h-57.13V106.1z"/>
	</g>
</g>
</svg>
