<svg id="svg" version="1.1" xmlns="http://www.w3.org/2000/svg" xmlns:xlink="http://www.w3.org/1999/xlink" width="400" height="400" viewBox="0, 0, 400,400"><g id="svgg"><path id="path0" d="M200.400 65.600 L 200.400 74.000 209.600 74.000 L 218.800 74.000 218.800 192.400 L 218.800 310.800 209.600 310.800 L 200.400 310.800 200.400 319.200 L 200.400 327.600 230.000 327.600 L 259.600 327.600 259.600 319.200 L 259.600 310.800 250.400 310.800 L 241.200 310.800 241.200 207.176 C 241.200 138.196,241.334 103.635,241.600 103.800 C 241.820 103.936,242.000 104.487,242.000 105.024 C 242.000 105.561,242.180 106.000,242.400 106.000 C 242.620 106.000,242.800 106.355,242.800 106.788 C 242.800 107.221,243.160 108.217,243.600 109.000 C 244.040 109.783,244.400 110.689,244.400 111.012 C 244.400 111.335,244.580 111.600,244.800 111.600 C 245.020 111.600,245.200 112.039,245.200 112.576 C 245.200 113.113,245.380 113.664,245.600 113.800 C 245.820 113.936,246.000 114.397,246.000 114.824 C 246.000 115.251,246.180 115.600,246.400 115.600 C 246.620 115.600,246.800 116.140,246.800 116.800 C 246.800 117.460,246.980 118.000,247.200 118.000 C 247.420 118.000,247.600 118.360,247.600 118.800 C 247.600 119.240,247.780 119.600,248.000 119.600 C 248.220 119.600,248.400 120.039,248.400 120.576 C 248.400 121.113,248.580 121.664,248.800 121.800 C 249.020 121.936,249.200 122.397,249.200 122.824 C 249.200 123.251,249.380 123.600,249.600 123.600 C 249.820 123.600,250.000 124.039,250.000 124.576 C 250.000 125.113,250.180 125.664,250.400 125.800 C 250.620 125.936,250.800 126.397,250.800 126.824 C 250.800 127.251,250.980 127.600,251.200 127.600 C 251.420 127.600,251.600 128.039,251.600 128.576 C 251.600 129.113,251.780 129.664,252.000 129.800 C 252.220 129.936,252.400 130.397,252.400 130.824 C 252.400 131.251,252.580 131.600,252.800 131.600 C 253.020 131.600,253.200 131.949,253.200 132.376 C 253.200 132.803,253.380 133.264,253.600 133.400 C 253.820 133.536,254.000 134.087,254.000 134.624 C 254.000 135.161,254.180 135.600,254.400 135.600 C 254.620 135.600,254.800 136.039,254.800 136.576 C 254.800 137.113,254.980 137.664,255.200 137.800 C 255.420 137.936,255.600 138.397,255.600 138.824 C 255.600 139.251,255.780 139.600,256.000 139.600 C 256.220 139.600,256.400 139.960,256.400 140.400 C 256.400 140.840,256.580 141.200,256.800 141.200 C 257.020 141.200,257.200 141.639,257.200 142.176 C 257.200 142.713,257.380 143.264,257.600 143.400 C 257.820 143.536,258.000 143.997,258.000 144.424 C 258.000 144.851,258.180 145.200,258.400 145.200 C 258.620 145.200,258.800 145.740,258.800 146.400 C 258.800 147.060,258.980 147.600,259.200 147.600 C 259.420 147.600,259.600 147.960,259.600 148.400 C 259.600 148.840,259.780 149.200,260.000 149.200 C 260.220 149.200,260.400 149.740,260.400 150.400 C 260.400 151.060,260.580 151.600,260.800 151.600 C 261.020 151.600,261.200 151.960,261.200 152.400 C 261.200 152.840,261.380 153.200,261.600 153.200 C 261.820 153.200,262.000 153.639,262.000 154.176 C 262.000 154.713,262.180 155.264,262.400 155.400 C 262.620 155.536,262.800 155.997,262.800 156.424 C 262.800 156.851,262.980 157.200,263.200 157.200 C 263.420 157.200,263.600 157.543,263.600 157.962 C 263.600 158.621,264.086 159.789,265.650 162.895 C 265.843 163.277,266.000 163.952,266.000 164.395 C 266.000 164.838,266.180 165.200,266.400 165.200 C 266.620 165.200,266.800 165.639,266.800 166.176 C 266.800 166.713,266.980 167.264,267.200 167.400 C 267.420 167.536,267.600 167.997,267.600 168.424 C 267.600 168.851,267.780 169.200,268.000 169.200 C 268.220 169.200,268.400 169.472,268.400 169.805 C 268.400 170.138,268.559 170.723,268.753 171.105 C 268.948 171.487,269.329 172.340,269.600 173.000 C 269.871 173.660,270.252 174.513,270.447 174.895 C 270.641 175.277,270.800 175.952,270.800 176.395 C 270.800 176.838,270.980 177.200,271.200 177.200 C 271.420 177.200,271.600 177.560,271.600 178.000 C 271.600 178.440,271.780 178.800,272.000 178.800 C 272.220 178.800,272.400 179.340,272.400 180.000 C 272.400 180.660,272.580 181.200,272.800 181.200 C 273.020 181.200,273.200 181.560,273.200 182.000 C 273.200 182.440,273.380 182.800,273.600 182.800 C 273.820 182.800,274.000 183.239,274.000 183.776 C 274.000 184.313,274.180 184.864,274.400 185.000 C 274.620 185.136,274.800 185.597,274.800 186.024 C 274.800 186.451,274.980 186.800,275.200 186.800 C 275.420 186.800,275.600 187.149,275.600 187.576 C 275.600 188.003,275.780 188.464,276.000 188.600 C 276.220 188.736,276.400 189.287,276.400 189.824 C 276.400 190.361,276.580 190.800,276.800 190.800 C 277.020 190.800,277.200 191.239,277.200 191.776 C 277.200 192.313,277.380 192.864,277.600 193.000 C 277.820 193.136,278.000 193.597,278.000 194.024 C 278.000 194.451,278.180 194.800,278.400 194.800 C 278.620 194.800,278.800 195.340,278.800 196.000 C 278.800 196.660,278.980 197.200,279.200 197.200 C 279.420 197.200,279.600 197.560,279.600 198.000 C 279.600 198.440,279.780 198.800,280.000 198.800 C 280.220 198.800,280.400 199.155,280.400 199.588 C 280.400 200.021,280.760 201.017,281.200 201.800 C 281.640 202.583,282.000 203.489,282.000 203.812 C 282.000 204.135,282.180 204.400,282.400 204.400 C 282.620 204.400,282.800 204.940,282.800 205.600 C 282.800 206.260,282.980 206.800,283.200 206.800 C 283.420 206.800,283.600 207.160,283.600 207.600 C 283.600 208.040,283.780 208.400,284.000 208.400 C 284.220 208.400,284.400 208.940,284.400 209.600 C 284.400 210.260,284.580 210.800,284.800 210.800 C 285.020 210.800,285.200 211.160,285.200 211.600 C 285.200 212.040,285.380 212.400,285.600 212.400 C 285.820 212.400,286.000 212.839,286.000 213.376 C 286.000 213.913,286.180 214.464,286.400 214.600 C 286.620 214.736,286.800 215.197,286.800 215.624 C 286.800 216.051,286.980 216.400,287.200 216.400 C 287.420 216.400,287.600 216.839,287.600 217.376 C 287.600 217.913,287.780 218.464,288.000 218.600 C 288.220 218.736,288.400 219.197,288.400 219.624 C 288.400 220.051,288.580 220.400,288.800 220.400 C 289.020 220.400,289.200 220.839,289.200 221.376 C 289.200 221.913,289.380 222.464,289.600 222.600 C 289.820 222.736,290.000 223.197,290.000 223.624 C 290.000 224.051,290.180 224.400,290.400 224.400 C 290.620 224.400,290.800 224.749,290.800 225.176 C 290.800 225.603,290.980 226.064,291.200 226.200 C 291.420 226.336,291.600 226.887,291.600 227.424 C 291.600 227.961,291.780 228.400,292.000 228.400 C 292.220 228.400,292.400 228.755,292.400 229.188 C 292.400 229.621,292.760 230.617,293.200 231.400 C 293.640 232.183,294.000 233.089,294.000 233.412 C 294.000 233.735,294.180 234.000,294.400 234.000 C 294.620 234.000,294.800 234.439,294.800 234.976 C 294.800 235.513,294.980 236.064,295.200 236.200 C 295.420 236.336,295.600 236.797,295.600 237.224 C 295.600 237.651,295.780 238.000,296.000 238.000 C 296.220 238.000,296.400 238.540,296.400 239.200 C 296.400 239.860,296.580 240.400,296.800 240.400 C 297.020 240.400,297.200 240.760,297.200 241.200 C 297.200 241.640,297.380 242.000,297.600 242.000 C 297.820 242.000,298.000 242.540,298.000 243.200 C 298.000 243.860,298.180 244.400,298.400 244.400 C 298.620 244.400,298.800 244.760,298.800 245.200 C 298.800 245.640,298.980 246.000,299.200 246.000 C 299.420 246.000,299.600 246.439,299.600 246.976 C 299.600 247.513,299.780 248.064,300.000 248.200 C 300.220 248.336,300.400 248.797,300.400 249.224 C 300.400 249.651,300.580 250.000,300.800 250.000 C 301.020 250.000,301.200 250.439,301.200 250.976 C 301.200 251.513,301.380 252.064,301.600 252.200 C 301.820 252.336,302.000 252.797,302.000 253.224 C 302.000 253.651,302.180 254.000,302.400 254.000 C 302.620 254.000,302.800 254.349,302.800 254.776 C 302.800 255.203,302.980 255.664,303.200 255.800 C 303.420 255.936,303.600 256.487,303.600 257.024 C 303.600 257.561,303.780 258.000,304.000 258.000 C 304.220 258.000,304.400 258.439,304.400 258.976 C 304.400 259.513,304.580 260.064,304.800 260.200 C 305.020 260.336,305.200 260.797,305.200 261.224 C 305.200 261.651,305.380 262.000,305.600 262.000 C 305.820 262.000,306.000 262.360,306.000 262.800 C 306.000 263.240,306.180 263.600,306.400 263.600 C 306.620 263.600,306.800 264.039,306.800 264.576 C 306.800 265.113,306.980 265.664,307.200 265.800 C 307.420 265.936,307.600 266.397,307.600 266.824 C 307.600 267.251,307.780 267.600,308.000 267.600 C 308.220 267.600,308.400 268.140,308.400 268.800 C 308.400 269.460,308.580 270.000,308.800 270.000 C 309.020 270.000,309.200 270.360,309.200 270.800 C 309.200 271.240,309.380 271.600,309.600 271.600 C 309.820 271.600,310.000 272.140,310.000 272.800 C 310.000 273.460,310.180 274.000,310.400 274.000 C 310.620 274.000,310.800 274.360,310.800 274.800 C 310.800 275.240,310.980 275.600,311.200 275.600 C 311.420 275.600,311.600 276.039,311.600 276.576 C 311.600 277.113,311.780 277.664,312.000 277.800 C 312.220 277.936,312.400 278.397,312.400 278.824 C 312.400 279.251,312.580 279.600,312.800 279.600 C 313.020 279.600,313.200 280.039,313.200 280.576 C 313.200 281.113,313.380 281.664,313.600 281.800 C 313.820 281.936,314.000 282.397,314.000 282.824 C 314.000 283.251,314.180 283.600,314.400 283.600 C 314.620 283.600,314.800 283.949,314.800 284.376 C 314.800 284.803,314.980 285.264,315.200 285.400 C 315.420 285.536,315.600 286.087,315.600 286.624 C 315.600 287.161,315.780 287.600,316.000 287.600 C 316.220 287.600,316.400 288.140,316.400 288.800 C 316.400 289.460,316.580 290.000,316.800 290.000 C 317.020 290.000,317.200 290.360,317.200 290.800 C 317.200 291.240,317.380 291.600,317.600 291.600 C 317.820 291.600,318.000 291.872,318.000 292.205 C 318.000 292.538,318.180 293.168,318.400 293.605 C 318.620 294.042,318.980 294.758,319.200 295.195 C 319.420 295.632,319.600 296.262,319.600 296.595 C 319.600 296.928,319.780 297.200,320.000 297.200 C 320.220 297.200,320.400 297.740,320.400 298.400 C 320.400 299.060,320.580 299.600,320.800 299.600 C 321.020 299.600,321.200 299.960,321.200 300.400 C 321.200 300.840,321.380 301.200,321.600 301.200 C 321.820 301.200,322.000 301.740,322.000 302.400 C 322.000 303.060,322.180 303.600,322.400 303.600 C 322.620 303.600,322.800 303.960,322.800 304.400 C 322.800 304.840,322.980 305.200,323.200 305.200 C 323.420 305.200,323.600 305.639,323.600 306.176 C 323.600 306.713,323.780 307.264,324.000 307.400 C 324.220 307.536,324.400 307.997,324.400 308.424 C 324.400 308.851,324.580 309.200,324.800 309.200 C 325.020 309.200,325.200 309.639,325.200 310.176 C 325.200 310.713,325.380 311.264,325.600 311.400 C 325.820 311.536,326.000 311.997,326.000 312.424 C 326.000 312.851,326.180 313.200,326.400 313.200 C 326.620 313.200,326.800 313.639,326.800 314.176 C 326.800 314.713,326.980 315.264,327.200 315.400 C 327.420 315.536,327.600 315.997,327.600 316.424 C 327.600 316.851,327.780 317.200,328.000 317.200 C 328.220 317.200,328.400 317.549,328.400 317.976 C 328.400 318.403,328.580 318.864,328.800 319.000 C 329.020 319.136,329.200 319.687,329.200 320.224 C 329.200 320.761,329.380 321.200,329.600 321.200 C 329.820 321.200,330.000 321.555,330.000 321.988 C 330.000 322.421,330.360 323.417,330.800 324.200 C 331.240 324.983,331.600 325.812,331.600 326.041 C 331.600 327.601,331.756 327.610,357.674 327.503 L 382.600 327.400 382.701 200.700 L 382.801 74.000 391.401 74.000 L 400.000 74.000 400.000 65.600 L 400.000 57.200 370.600 57.200 L 341.200 57.200 341.200 65.600 L 341.200 74.000 350.400 74.000 L 359.600 74.000 359.600 171.600 C 359.600 236.400,359.466 269.200,359.200 269.200 C 358.980 269.200,358.800 268.840,358.800 268.400 C 358.800 267.960,358.620 267.600,358.400 267.600 C 358.180 267.600,358.000 267.161,358.000 266.624 C 358.000 266.087,357.820 265.536,357.600 265.400 C 357.380 265.264,357.200 264.803,357.200 264.376 C 357.200 263.949,357.020 263.600,356.800 263.600 C 356.580 263.600,356.400 263.161,356.400 262.624 C 356.400 262.087,356.220 261.536,356.000 261.400 C 355.780 261.264,355.600 260.803,355.600 260.376 C 355.600 259.949,355.420 259.600,355.200 259.600 C 354.980 259.600,354.800 259.161,354.800 258.624 C 354.800 258.087,354.620 257.536,354.400 257.400 C 354.180 257.264,354.000 256.803,354.000 256.376 C 354.000 255.949,353.820 255.600,353.600 255.600 C 353.380 255.600,353.200 255.060,353.200 254.400 C 353.200 253.740,353.020 253.200,352.800 253.200 C 352.580 253.200,352.400 252.840,352.400 252.400 C 352.400 251.960,352.220 251.600,352.000 251.600 C 351.780 251.600,351.600 251.245,351.600 250.812 C 351.600 250.379,351.240 249.383,350.800 248.600 C 350.360 247.817,350.000 246.911,350.000 246.588 C 350.000 246.265,349.820 246.000,349.600 246.000 C 349.380 246.000,349.200 245.561,349.200 245.024 C 349.200 244.487,349.020 243.936,348.800 243.800 C 348.580 243.664,348.400 243.203,348.400 242.776 C 348.400 242.349,348.220 242.000,348.000 242.000 C 347.780 242.000,347.600 241.460,347.600 240.800 C 347.600 240.140,347.420 239.600,347.200 239.600 C 346.980 239.600,346.800 239.240,346.800 238.800 C 346.800 238.360,346.620 238.000,346.400 238.000 C 346.180 238.000,346.000 237.460,346.000 236.800 C 346.000 236.140,345.820 235.600,345.600 235.600 C 345.380 235.600,345.200 235.240,345.200 234.800 C 345.200 234.360,345.020 234.000,344.800 234.000 C 344.580 234.000,344.400 233.561,344.400 233.024 C 344.400 232.487,344.220 231.936,344.000 231.800 C 343.780 231.664,343.600 231.203,343.600 230.776 C 343.600 230.349,343.420 230.000,343.200 230.000 C 342.980 230.000,342.800 229.561,342.800 229.024 C 342.800 228.487,342.620 227.936,342.400 227.800 C 342.180 227.664,342.000 227.203,342.000 226.776 C 342.000 226.349,341.820 226.000,341.600 226.000 C 341.380 226.000,341.200 225.651,341.200 225.224 C 341.200 224.797,341.020 224.336,340.800 224.200 C 340.580 224.064,340.400 223.513,340.400 222.976 C 340.400 222.439,340.220 222.000,340.000 222.000 C 339.780 222.000,339.600 221.561,339.600 221.024 C 339.600 220.487,339.420 219.936,339.200 219.800 C 338.980 219.664,338.800 219.203,338.800 218.776 C 338.800 218.349,338.620 218.000,338.400 218.000 C 338.180 218.000,338.000 217.728,338.000 217.395 C 338.000 217.062,337.820 216.432,337.600 215.995 C 337.380 215.558,337.020 214.842,336.800 214.405 C 336.580 213.968,336.400 213.338,336.400 213.005 C 336.400 212.672,336.220 212.400,336.000 212.400 C 335.780 212.400,335.600 211.860,335.600 211.200 C 335.600 210.540,335.420 210.000,335.200 210.000 C 334.980 210.000,334.800 209.640,334.800 209.200 C 334.800 208.760,334.620 208.400,334.400 208.400 C 334.180 208.400,334.000 207.860,334.000 207.200 C 334.000 206.540,333.820 206.000,333.600 206.000 C 333.380 206.000,333.200 205.640,333.200 205.200 C 333.200 204.760,333.020 204.400,332.800 204.400 C 332.580 204.400,332.400 203.961,332.400 203.424 C 332.400 202.887,332.220 202.336,332.000 202.200 C 331.780 202.064,331.600 201.603,331.600 201.176 C 331.600 200.749,331.420 200.400,331.200 200.400 C 330.980 200.400,330.800 199.961,330.800 199.424 C 330.800 198.887,330.620 198.336,330.400 198.200 C 330.180 198.064,330.000 197.603,330.000 197.176 C 330.000 196.749,329.820 196.400,329.600 196.400 C 329.380 196.400,329.200 195.961,329.200 195.424 C 329.200 194.887,329.020 194.336,328.800 194.200 C 328.580 194.064,328.400 193.603,328.400 193.176 C 328.400 192.749,328.220 192.400,328.000 192.400 C 327.780 192.400,327.600 192.051,327.600 191.624 C 327.600 191.197,327.420 190.736,327.200 190.600 C 326.980 190.464,326.800 189.913,326.800 189.376 C 326.800 188.839,326.620 188.400,326.400 188.400 C 326.180 188.400,326.000 187.961,326.000 187.424 C 326.000 186.887,325.820 186.336,325.600 186.200 C 325.380 186.064,325.200 185.603,325.200 185.176 C 325.200 184.749,325.020 184.400,324.800 184.400 C 324.580 184.400,324.400 184.128,324.400 183.795 C 324.400 183.462,324.192 182.787,323.938 182.295 C 322.967 180.418,322.800 179.993,322.800 179.405 C 322.800 179.072,322.620 178.800,322.400 178.800 C 322.180 178.800,322.000 178.260,322.000 177.600 C 322.000 176.940,321.820 176.400,321.600 176.400 C 321.380 176.400,321.200 176.040,321.200 175.600 C 321.200 175.160,321.020 174.800,320.800 174.800 C 320.580 174.800,320.400 174.260,320.400 173.600 C 320.400 172.940,320.220 172.400,320.000 172.400 C 319.780 172.400,319.600 172.040,319.600 171.600 C 319.600 171.160,319.420 170.800,319.200 170.800 C 318.980 170.800,318.800 170.361,318.800 169.824 C 318.800 169.287,318.620 168.736,318.400 168.600 C 318.180 168.464,318.000 168.003,318.000 167.576 C 318.000 167.149,317.820 166.800,317.600 166.800 C 317.380 166.800,317.200 166.361,317.200 165.824 C 317.200 165.287,317.020 164.736,316.800 164.600 C 316.580 164.464,316.400 164.003,316.400 163.576 C 316.400 163.149,316.220 162.800,316.000 162.800 C 315.780 162.800,315.600 162.361,315.600 161.824 C 315.600 161.287,315.420 160.736,315.200 160.600 C 314.980 160.464,314.800 160.003,314.800 159.576 C 314.800 159.149,314.620 158.800,314.400 158.800 C 314.180 158.800,314.000 158.451,314.000 158.024 C 314.000 157.597,313.820 157.136,313.600 157.000 C 313.380 156.864,313.200 156.313,313.200 155.776 C 313.200 155.239,313.020 154.800,312.800 154.800 C 312.580 154.800,312.400 154.361,312.400 153.824 C 312.400 153.287,312.220 152.736,312.000 152.600 C 311.780 152.464,311.600 152.003,311.600 151.576 C 311.600 151.149,311.420 150.800,311.200 150.800 C 310.980 150.800,310.800 150.440,310.800 150.000 C 310.800 149.560,310.620 149.200,310.400 149.200 C 310.180 149.200,310.000 148.838,310.000 148.395 C 310.000 147.952,309.792 147.187,309.538 146.695 C 308.542 144.769,308.400 144.383,308.400 143.605 C 308.400 143.162,308.220 142.800,308.000 142.800 C 307.780 142.800,307.600 142.440,307.600 142.000 C 307.600 141.560,307.420 141.200,307.200 141.200 C 306.980 141.200,306.800 140.660,306.800 140.000 C 306.800 139.340,306.620 138.800,306.400 138.800 C 306.180 138.800,306.000 138.440,306.000 138.000 C 306.000 137.560,305.820 137.200,305.600 137.200 C 305.380 137.200,305.200 136.761,305.200 136.224 C 305.200 135.687,305.020 135.136,304.800 135.000 C 304.580 134.864,304.400 134.403,304.400 133.976 C 304.400 133.549,304.220 133.200,304.000 133.200 C 303.780 133.200,303.600 132.761,303.600 132.224 C 303.600 131.687,303.420 131.136,303.200 131.000 C 302.980 130.864,302.800 130.403,302.800 129.976 C 302.800 129.549,302.620 129.200,302.400 129.200 C 302.180 129.200,302.000 128.761,302.000 128.224 C 302.000 127.687,301.820 127.136,301.600 127.000 C 301.380 126.864,301.200 126.403,301.200 125.976 C 301.200 125.549,301.020 125.200,300.800 125.200 C 300.580 125.200,300.400 124.851,300.400 124.424 C 300.400 123.997,300.220 123.536,300.000 123.400 C 299.780 123.264,299.600 122.713,299.600 122.176 C 299.600 121.639,299.420 121.200,299.200 121.200 C 298.980 121.200,298.800 120.761,298.800 120.224 C 298.800 119.687,298.620 119.136,298.400 119.000 C 298.180 118.864,298.000 118.403,298.000 117.976 C 298.000 117.549,297.820 117.200,297.600 117.200 C 297.380 117.200,297.200 116.840,297.200 116.400 C 297.200 115.960,297.020 115.600,296.800 115.600 C 296.580 115.600,296.400 115.161,296.400 114.624 C 296.400 114.087,296.220 113.536,296.000 113.400 C 295.780 113.264,295.600 112.803,295.600 112.376 C 295.600 111.949,295.420 111.600,295.200 111.600 C 294.980 111.600,294.800 111.060,294.800 110.400 C 294.800 109.740,294.620 109.200,294.400 109.200 C 294.180 109.200,294.000 108.840,294.000 108.400 C 294.000 107.960,293.820 107.600,293.600 107.600 C 293.380 107.600,293.200 107.060,293.200 106.400 C 293.200 105.740,293.020 105.200,292.800 105.200 C 292.580 105.200,292.400 104.840,292.400 104.400 C 292.400 103.960,292.220 103.600,292.000 103.600 C 291.780 103.600,291.600 103.161,291.600 102.624 C 291.600 102.087,291.420 101.536,291.200 101.400 C 290.980 101.264,290.800 100.803,290.800 100.376 C 290.800 99.949,290.620 99.600,290.400 99.600 C 290.180 99.600,290.000 99.251,290.000 98.824 C 290.000 98.397,289.820 97.936,289.600 97.800 C 289.380 97.664,289.200 97.113,289.200 96.576 C 289.200 96.039,289.020 95.600,288.800 95.600 C 288.580 95.600,288.400 95.161,288.400 94.624 C 288.400 94.087,288.220 93.536,288.000 93.400 C 287.780 93.264,287.600 92.803,287.600 92.376 C 287.600 91.949,287.420 91.600,287.200 91.600 C 286.980 91.600,286.800 91.251,286.800 90.824 C 286.800 90.397,286.620 89.936,286.400 89.800 C 286.180 89.664,286.000 89.113,286.000 88.576 C 286.000 88.039,285.820 87.600,285.600 87.600 C 285.380 87.600,285.200 87.245,285.200 86.812 C 285.200 86.379,284.840 85.383,284.400 84.600 C 283.960 83.817,283.600 82.911,283.600 82.588 C 283.600 82.265,283.420 82.000,283.200 82.000 C 282.980 82.000,282.800 81.561,282.800 81.024 C 282.800 80.487,282.620 79.936,282.400 79.800 C 282.180 79.664,282.000 79.203,282.000 78.776 C 282.000 78.349,281.820 78.000,281.600 78.000 C 281.380 78.000,281.200 77.460,281.200 76.800 C 281.200 76.140,281.020 75.600,280.800 75.600 C 280.580 75.600,280.400 75.240,280.400 74.800 C 280.400 74.360,280.220 74.000,280.000 74.000 C 279.780 74.000,279.600 73.460,279.600 72.800 C 279.600 72.140,279.420 71.600,279.200 71.600 C 278.980 71.600,278.800 71.240,278.800 70.800 C 278.800 70.360,278.620 70.000,278.400 70.000 C 278.180 70.000,278.000 69.561,278.000 69.024 C 278.000 68.487,277.820 67.936,277.600 67.800 C 277.380 67.664,277.200 67.203,277.200 66.776 C 277.200 66.349,277.020 66.000,276.800 66.000 C 276.580 66.000,276.400 65.561,276.400 65.024 C 276.400 64.487,276.220 63.936,276.000 63.800 C 275.780 63.664,275.600 63.203,275.600 62.776 C 275.600 62.349,275.420 62.000,275.200 62.000 C 274.980 62.000,274.800 61.561,274.800 61.024 C 274.800 60.487,274.620 59.936,274.400 59.800 C 274.180 59.664,274.000 59.281,274.000 58.948 C 274.000 57.153,274.997 57.200,236.629 57.200 L 200.400 57.200 200.400 65.600 " stroke="none" fill="#bcbcbc" fill-rule="evenodd"></path><path id="path1" d="M0.000 65.600 L 0.000 74.000 9.800 74.000 L 19.600 74.000 19.600 192.000 L 19.600 310.000 9.800 310.000 L 0.000 310.000 0.000 318.400 L 0.000 326.800 44.200 326.800 C 73.400 326.800,88.400 326.664,88.400 326.400 C 88.400 326.172,89.592 326.000,91.176 326.000 C 92.703 326.000,94.064 325.820,94.200 325.600 C 94.336 325.380,95.427 325.200,96.624 325.200 C 97.821 325.200,98.800 325.020,98.800 324.800 C 98.800 324.580,99.700 324.400,100.800 324.400 C 101.900 324.400,102.800 324.220,102.800 324.000 C 102.800 323.780,103.520 323.600,104.400 323.600 C 105.280 323.600,106.000 323.420,106.000 323.200 C 106.000 322.980,106.540 322.800,107.200 322.800 C 107.860 322.800,108.400 322.620,108.400 322.400 C 108.400 322.180,109.019 322.000,109.776 322.000 C 110.533 322.000,111.264 321.820,111.400 321.600 C 111.536 321.380,112.076 321.200,112.600 321.200 C 113.124 321.200,113.664 321.020,113.800 320.800 C 113.936 320.580,114.397 320.400,114.824 320.400 C 115.251 320.400,115.600 320.220,115.600 320.000 C 115.600 319.780,116.140 319.600,116.800 319.600 C 117.460 319.600,118.000 319.420,118.000 319.200 C 118.000 318.980,118.360 318.800,118.800 318.800 C 119.240 318.800,119.600 318.620,119.600 318.400 C 119.600 318.180,119.960 318.000,120.400 318.000 C 120.840 318.000,121.200 317.820,121.200 317.600 C 121.200 317.380,121.560 317.200,122.000 317.200 C 122.440 317.200,122.800 317.020,122.800 316.800 C 122.800 316.580,123.160 316.400,123.600 316.400 C 124.040 316.400,124.400 316.220,124.400 316.000 C 124.400 315.780,124.760 315.600,125.200 315.600 C 125.640 315.600,126.000 315.420,126.000 315.200 C 126.000 314.980,126.360 314.800,126.800 314.800 C 127.240 314.800,127.600 314.620,127.600 314.400 C 127.600 314.180,127.960 314.000,128.400 314.000 C 128.840 314.000,129.200 313.820,129.200 313.600 C 129.200 313.380,129.520 313.200,129.912 313.200 C 130.303 313.200,130.883 312.840,131.200 312.400 C 131.517 311.960,132.097 311.600,132.488 311.600 C 132.880 311.600,133.200 311.420,133.200 311.200 C 133.200 310.980,133.436 310.800,133.725 310.800 C 134.013 310.800,134.636 310.440,135.108 310.000 C 135.580 309.560,136.127 309.200,136.324 309.200 C 136.521 309.200,137.246 308.660,137.937 308.000 C 138.628 307.340,139.388 306.800,139.628 306.800 C 139.867 306.800,140.754 306.080,141.600 305.200 C 142.446 304.320,143.337 303.600,143.582 303.600 C 144.146 303.600,158.000 289.708,158.000 289.142 C 158.000 288.910,158.540 288.217,159.200 287.600 C 159.860 286.983,160.400 286.303,160.400 286.088 C 160.400 285.873,161.120 284.955,162.000 284.048 C 162.880 283.141,163.600 282.169,163.600 281.888 C 163.600 281.607,163.960 281.117,164.400 280.800 C 164.840 280.483,165.200 279.943,165.200 279.600 C 165.200 279.257,165.560 278.717,166.000 278.400 C 166.440 278.083,166.800 277.543,166.800 277.200 C 166.800 276.857,167.160 276.317,167.600 276.000 C 168.040 275.683,168.400 275.103,168.400 274.712 C 168.400 274.320,168.580 274.000,168.800 274.000 C 169.020 274.000,169.200 273.680,169.200 273.288 C 169.200 272.897,169.560 272.317,170.000 272.000 C 170.440 271.683,170.800 271.103,170.800 270.712 C 170.800 270.320,170.980 270.000,171.200 270.000 C 171.420 270.000,171.600 269.640,171.600 269.200 C 171.600 268.760,171.780 268.400,172.000 268.400 C 172.220 268.400,172.400 268.040,172.400 267.600 C 172.400 267.160,172.580 266.800,172.800 266.800 C 173.020 266.800,173.200 266.440,173.200 266.000 C 173.200 265.560,173.380 265.200,173.600 265.200 C 173.820 265.200,174.000 264.840,174.000 264.400 C 174.000 263.960,174.180 263.600,174.400 263.600 C 174.620 263.600,174.800 263.240,174.800 262.800 C 174.800 262.360,174.980 262.000,175.200 262.000 C 175.420 262.000,175.600 261.640,175.600 261.200 C 175.600 260.760,175.780 260.400,176.000 260.400 C 176.220 260.400,176.400 260.040,176.400 259.600 C 176.400 259.160,176.580 258.800,176.800 258.800 C 177.020 258.800,177.200 258.260,177.200 257.600 C 177.200 256.940,177.380 256.400,177.600 256.400 C 177.820 256.400,178.000 256.040,178.000 255.600 C 178.000 255.160,178.180 254.800,178.400 254.800 C 178.620 254.800,178.800 254.451,178.800 254.024 C 178.800 253.597,178.980 253.136,179.200 253.000 C 179.420 252.864,179.600 252.313,179.600 251.776 C 179.600 251.239,179.780 250.800,180.000 250.800 C 180.220 250.800,180.400 250.260,180.400 249.600 C 180.400 248.940,180.580 248.400,180.800 248.400 C 181.020 248.400,181.200 247.860,181.200 247.200 C 181.200 246.540,181.380 246.000,181.600 246.000 C 181.820 246.000,182.000 245.460,182.000 244.800 C 182.000 244.140,182.180 243.600,182.400 243.600 C 182.620 243.600,182.800 242.880,182.800 242.000 C 182.800 241.120,182.980 240.400,183.200 240.400 C 183.420 240.400,183.600 239.781,183.600 239.024 C 183.600 238.267,183.780 237.536,184.000 237.400 C 184.220 237.264,184.400 236.544,184.400 235.800 C 184.400 235.056,184.580 234.336,184.800 234.200 C 185.020 234.064,185.200 233.243,185.200 232.376 C 185.200 231.509,185.380 230.800,185.600 230.800 C 185.820 230.800,186.000 229.900,186.000 228.800 C 186.000 227.700,186.180 226.800,186.400 226.800 C 186.622 226.800,186.800 225.733,186.800 224.400 C 186.800 223.067,186.978 222.000,187.200 222.000 C 187.429 222.000,187.600 220.800,187.600 219.200 C 187.600 217.600,187.771 216.400,188.000 216.400 C 188.241 216.400,188.400 214.741,188.400 212.224 C 188.400 209.871,188.575 207.939,188.800 207.800 C 189.348 207.461,189.348 175.339,188.800 175.000 C 188.579 174.864,188.400 173.070,188.400 171.000 C 188.400 168.930,188.221 167.136,188.000 167.000 C 187.780 166.864,187.600 165.694,187.600 164.400 C 187.600 163.106,187.420 161.936,187.200 161.800 C 186.980 161.664,186.800 160.584,186.800 159.400 C 186.800 158.216,186.620 157.136,186.400 157.000 C 186.180 156.864,186.000 155.773,186.000 154.576 C 186.000 153.379,185.820 152.400,185.600 152.400 C 185.380 152.400,185.200 151.680,185.200 150.800 C 185.200 149.920,185.020 149.200,184.800 149.200 C 184.580 149.200,184.400 148.480,184.400 147.600 C 184.400 146.720,184.220 146.000,184.000 146.000 C 183.780 146.000,183.600 145.280,183.600 144.400 C 183.600 143.520,183.420 142.800,183.200 142.800 C 182.980 142.800,182.800 142.260,182.800 141.600 C 182.800 140.940,182.620 140.400,182.400 140.400 C 182.180 140.400,182.000 139.781,182.000 139.024 C 182.000 138.267,181.820 137.536,181.600 137.400 C 181.380 137.264,181.200 136.803,181.200 136.376 C 181.200 135.949,181.020 135.600,180.800 135.600 C 180.580 135.600,180.400 135.060,180.400 134.400 C 180.400 133.740,180.220 133.200,180.000 133.200 C 179.780 133.200,179.600 132.660,179.600 132.000 C 179.600 131.340,179.420 130.800,179.200 130.800 C 178.980 130.800,178.800 130.361,178.800 129.824 C 178.800 129.287,178.620 128.736,178.400 128.600 C 178.180 128.464,178.000 128.003,178.000 127.576 C 178.000 127.149,177.820 126.800,177.600 126.800 C 177.380 126.800,177.200 126.440,177.200 126.000 C 177.200 125.560,177.020 125.200,176.800 125.200 C 176.580 125.200,176.400 124.761,176.400 124.224 C 176.400 123.687,176.220 123.136,176.000 123.000 C 175.780 122.864,175.600 122.403,175.600 121.976 C 175.600 121.549,175.420 121.200,175.200 121.200 C 174.980 121.200,174.800 120.840,174.800 120.400 C 174.800 119.960,174.620 119.600,174.400 119.600 C 174.180 119.600,174.000 119.240,174.000 118.800 C 174.000 118.360,173.820 118.000,173.600 118.000 C 173.380 118.000,173.200 117.722,173.200 117.383 C 173.200 117.044,172.840 116.380,172.400 115.908 C 171.960 115.436,171.600 114.813,171.600 114.525 C 171.600 114.236,171.420 114.000,171.200 114.000 C 170.980 114.000,170.800 113.640,170.800 113.200 C 170.800 112.760,170.620 112.400,170.400 112.400 C 170.180 112.400,170.000 112.040,170.000 111.600 C 170.000 111.160,169.820 110.800,169.600 110.800 C 169.380 110.800,169.200 110.564,169.200 110.275 C 169.200 109.987,168.840 109.364,168.400 108.892 C 167.960 108.420,167.600 107.796,167.600 107.505 C 167.600 107.214,167.240 106.717,166.800 106.400 C 166.360 106.083,166.000 105.543,166.000 105.200 C 166.000 104.857,165.640 104.317,165.200 104.000 C 164.760 103.683,164.400 103.220,164.400 102.971 C 164.400 102.722,163.860 101.954,163.200 101.263 C 162.540 100.572,162.000 99.808,162.000 99.564 C 162.000 99.320,161.460 98.617,160.800 98.000 C 160.140 97.383,159.600 96.695,159.600 96.470 C 159.600 96.245,158.340 94.786,156.800 93.228 C 155.260 91.669,154.000 90.236,154.000 90.042 C 154.000 89.583,148.017 83.600,147.557 83.600 C 147.364 83.600,146.108 82.520,144.768 81.200 C 143.427 79.880,142.148 78.800,141.926 78.800 C 141.703 78.800,141.017 78.260,140.400 77.600 C 139.783 76.940,139.031 76.400,138.728 76.400 C 138.425 76.400,137.917 76.040,137.600 75.600 C 137.283 75.160,136.743 74.800,136.400 74.800 C 136.057 74.800,135.517 74.440,135.200 74.000 C 134.883 73.560,134.343 73.200,134.000 73.200 C 133.657 73.200,133.117 72.840,132.800 72.400 C 132.483 71.960,131.903 71.600,131.512 71.600 C 131.120 71.600,130.800 71.420,130.800 71.200 C 130.800 70.980,130.522 70.800,130.183 70.800 C 129.844 70.800,129.180 70.440,128.708 70.000 C 128.236 69.560,127.613 69.200,127.325 69.200 C 127.036 69.200,126.800 69.020,126.800 68.800 C 126.800 68.580,126.440 68.400,126.000 68.400 C 125.560 68.400,125.200 68.220,125.200 68.000 C 125.200 67.780,124.840 67.600,124.400 67.600 C 123.960 67.600,123.600 67.420,123.600 67.200 C 123.600 66.980,123.240 66.800,122.800 66.800 C 122.360 66.800,122.000 66.620,122.000 66.400 C 122.000 66.180,121.460 66.000,120.800 66.000 C 120.140 66.000,119.600 65.820,119.600 65.600 C 119.600 65.380,119.240 65.200,118.800 65.200 C 118.360 65.200,118.000 65.020,118.000 64.800 C 118.000 64.580,117.651 64.400,117.224 64.400 C 116.797 64.400,116.336 64.220,116.200 64.000 C 116.064 63.780,115.513 63.600,114.976 63.600 C 114.439 63.600,114.000 63.420,114.000 63.200 C 114.000 62.980,113.460 62.800,112.800 62.800 C 112.140 62.800,111.600 62.620,111.600 62.400 C 111.600 62.180,111.060 62.000,110.400 62.000 C 109.740 62.000,109.200 61.820,109.200 61.600 C 109.200 61.380,108.480 61.200,107.600 61.200 C 106.720 61.200,106.000 61.020,106.000 60.800 C 106.000 60.580,105.280 60.400,104.400 60.400 C 103.520 60.400,102.800 60.220,102.800 60.000 C 102.800 59.780,102.080 59.600,101.200 59.600 C 100.320 59.600,99.600 59.420,99.600 59.200 C 99.600 58.978,98.533 58.800,97.200 58.800 C 95.867 58.800,94.800 58.622,94.800 58.400 C 94.800 58.171,93.600 58.000,92.000 58.000 C 90.400 58.000,89.200 57.829,89.200 57.600 C 89.200 57.336,74.067 57.200,44.600 57.200 L 0.000 57.200 0.000 65.600 M82.800 74.400 C 82.800 74.620,83.700 74.800,84.800 74.800 C 85.900 74.800,86.800 74.980,86.800 75.200 C 86.800 75.420,87.520 75.600,88.400 75.600 C 89.280 75.600,90.000 75.780,90.000 76.000 C 90.000 76.220,90.619 76.400,91.376 76.400 C 92.133 76.400,92.864 76.580,93.000 76.800 C 93.136 77.020,93.597 77.200,94.024 77.200 C 94.451 77.200,94.800 77.380,94.800 77.600 C 94.800 77.820,95.149 78.000,95.576 78.000 C 96.003 78.000,96.464 78.180,96.600 78.400 C 96.736 78.620,97.204 78.800,97.640 78.800 C 98.077 78.800,98.820 79.160,99.292 79.600 C 99.764 80.040,100.387 80.400,100.675 80.400 C 100.964 80.400,101.200 80.580,101.200 80.800 C 101.200 81.020,101.560 81.200,102.000 81.200 C 102.440 81.200,102.800 81.350,102.800 81.532 C 102.800 81.715,103.295 82.120,103.900 82.432 C 104.505 82.745,105.349 83.315,105.775 83.700 C 106.202 84.085,106.715 84.400,106.915 84.400 C 107.115 84.400,107.783 84.940,108.400 85.600 C 109.017 86.260,109.695 86.800,109.907 86.800 C 110.428 86.800,114.800 91.027,114.800 91.531 C 114.800 91.750,115.880 93.027,117.200 94.368 C 118.520 95.708,119.600 96.986,119.600 97.206 C 119.600 97.427,120.140 98.172,120.800 98.863 C 121.460 99.554,122.000 100.279,122.000 100.476 C 122.000 100.673,122.360 101.220,122.800 101.692 C 123.240 102.164,123.600 102.787,123.600 103.075 C 123.600 103.364,123.780 103.600,124.000 103.600 C 124.220 103.600,124.400 103.878,124.400 104.217 C 124.400 104.556,124.760 105.220,125.200 105.692 C 125.640 106.164,126.000 106.787,126.000 107.075 C 126.000 107.364,126.180 107.600,126.400 107.600 C 126.620 107.600,126.800 107.960,126.800 108.400 C 126.800 108.840,126.980 109.200,127.200 109.200 C 127.420 109.200,127.600 109.560,127.600 110.000 C 127.600 110.440,127.780 110.800,128.000 110.800 C 128.220 110.800,128.400 111.160,128.400 111.600 C 128.400 112.040,128.580 112.400,128.800 112.400 C 129.020 112.400,129.200 112.760,129.200 113.200 C 129.200 113.640,129.380 114.000,129.600 114.000 C 129.820 114.000,130.000 114.439,130.000 114.976 C 130.000 115.513,130.180 116.064,130.400 116.200 C 130.620 116.336,130.800 116.797,130.800 117.224 C 130.800 117.651,130.980 118.000,131.200 118.000 C 131.420 118.000,131.600 118.360,131.600 118.800 C 131.600 119.240,131.780 119.600,132.000 119.600 C 132.220 119.600,132.400 120.140,132.400 120.800 C 132.400 121.460,132.580 122.000,132.800 122.000 C 133.020 122.000,133.200 122.360,133.200 122.800 C 133.200 123.240,133.380 123.600,133.600 123.600 C 133.820 123.600,134.000 124.140,134.000 124.800 C 134.000 125.460,134.180 126.000,134.400 126.000 C 134.620 126.000,134.800 126.540,134.800 127.200 C 134.800 127.860,134.980 128.400,135.200 128.400 C 135.420 128.400,135.600 128.929,135.600 129.576 C 135.600 130.223,135.780 130.864,136.000 131.000 C 136.220 131.136,136.400 131.867,136.400 132.624 C 136.400 133.381,136.580 134.000,136.800 134.000 C 137.020 134.000,137.200 134.720,137.200 135.600 C 137.200 136.480,137.380 137.200,137.600 137.200 C 137.820 137.200,138.000 137.920,138.000 138.800 C 138.000 139.680,138.180 140.400,138.400 140.400 C 138.620 140.400,138.800 141.120,138.800 142.000 C 138.800 142.880,138.980 143.600,139.200 143.600 C 139.420 143.600,139.600 144.500,139.600 145.600 C 139.600 146.700,139.780 147.600,140.000 147.600 C 140.222 147.600,140.400 148.667,140.400 150.000 C 140.400 151.333,140.578 152.400,140.800 152.400 C 141.022 152.400,141.200 153.459,141.200 154.776 C 141.200 156.083,141.380 157.264,141.600 157.400 C 141.820 157.536,142.000 159.167,142.000 161.024 C 142.000 163.008,142.165 164.400,142.400 164.400 C 142.645 164.400,142.800 166.325,142.800 169.376 C 142.800 172.263,142.968 174.457,143.200 174.600 C 143.457 174.759,143.600 180.996,143.600 192.000 C 143.600 203.004,143.457 209.241,143.200 209.400 C 142.968 209.543,142.800 211.730,142.800 214.600 C 142.800 217.470,142.632 219.657,142.400 219.800 C 142.180 219.936,142.000 221.387,142.000 223.024 C 142.000 224.741,141.831 226.000,141.600 226.000 C 141.371 226.000,141.200 227.200,141.200 228.800 C 141.200 230.400,141.029 231.600,140.800 231.600 C 140.580 231.600,140.400 232.489,140.400 233.576 C 140.400 234.663,140.220 235.664,140.000 235.800 C 139.780 235.936,139.600 237.027,139.600 238.224 C 139.600 239.421,139.420 240.400,139.200 240.400 C 138.980 240.400,138.800 241.120,138.800 242.000 C 138.800 242.880,138.620 243.600,138.400 243.600 C 138.180 243.600,138.000 244.320,138.000 245.200 C 138.000 246.080,137.820 246.800,137.600 246.800 C 137.380 246.800,137.200 247.520,137.200 248.400 C 137.200 249.280,137.020 250.000,136.800 250.000 C 136.580 250.000,136.400 250.540,136.400 251.200 C 136.400 251.860,136.220 252.400,136.000 252.400 C 135.780 252.400,135.600 253.120,135.600 254.000 C 135.600 254.880,135.420 255.600,135.200 255.600 C 134.980 255.600,134.800 256.140,134.800 256.800 C 134.800 257.460,134.620 258.000,134.400 258.000 C 134.180 258.000,134.000 258.349,134.000 258.776 C 134.000 259.203,133.820 259.664,133.600 259.800 C 133.380 259.936,133.200 260.487,133.200 261.024 C 133.200 261.561,133.020 262.000,132.800 262.000 C 132.580 262.000,132.400 262.540,132.400 263.200 C 132.400 263.860,132.220 264.400,132.000 264.400 C 131.780 264.400,131.600 264.760,131.600 265.200 C 131.600 265.640,131.420 266.000,131.200 266.000 C 130.980 266.000,130.800 266.360,130.800 266.800 C 130.800 267.240,130.620 267.600,130.400 267.600 C 130.180 267.600,130.000 268.140,130.000 268.800 C 130.000 269.460,129.820 270.000,129.600 270.000 C 129.380 270.000,129.200 270.360,129.200 270.800 C 129.200 271.240,129.020 271.600,128.800 271.600 C 128.580 271.600,128.400 271.960,128.400 272.400 C 128.400 272.840,128.220 273.200,128.000 273.200 C 127.780 273.200,127.600 273.478,127.600 273.817 C 127.600 274.156,127.240 274.820,126.800 275.292 C 126.360 275.764,126.000 276.387,126.000 276.675 C 126.000 276.964,125.820 277.200,125.600 277.200 C 125.380 277.200,125.200 277.560,125.200 278.000 C 125.200 278.440,125.020 278.800,124.800 278.800 C 124.580 278.800,124.400 279.120,124.400 279.512 C 124.400 279.903,124.040 280.483,123.600 280.800 C 123.160 281.117,122.800 281.657,122.800 282.000 C 122.800 282.343,122.440 282.883,122.000 283.200 C 121.560 283.517,121.200 284.057,121.200 284.400 C 121.200 284.743,120.840 285.283,120.400 285.600 C 119.960 285.917,119.600 286.377,119.600 286.623 C 119.600 286.868,118.340 288.400,116.800 290.028 C 115.260 291.656,114.000 293.139,114.000 293.323 C 114.000 293.764,112.953 294.800,112.507 294.800 C 112.314 294.800,111.035 295.880,109.665 297.200 C 108.295 298.520,106.998 299.600,106.783 299.600 C 106.569 299.600,105.828 300.140,105.137 300.800 C 104.446 301.460,103.638 302.000,103.341 302.000 C 103.043 302.000,102.800 302.180,102.800 302.400 C 102.800 302.620,102.440 302.800,102.000 302.800 C 101.560 302.800,101.200 302.980,101.200 303.200 C 101.200 303.420,100.840 303.600,100.400 303.600 C 99.960 303.600,99.600 303.780,99.600 304.000 C 99.600 304.220,99.240 304.400,98.800 304.400 C 98.360 304.400,98.000 304.580,98.000 304.800 C 98.000 305.020,97.640 305.200,97.200 305.200 C 96.760 305.200,96.400 305.380,96.400 305.600 C 96.400 305.820,96.040 306.000,95.600 306.000 C 95.160 306.000,94.800 306.180,94.800 306.400 C 94.800 306.620,94.260 306.800,93.600 306.800 C 92.940 306.800,92.400 306.980,92.400 307.200 C 92.400 307.420,91.860 307.600,91.200 307.600 C 90.540 307.600,90.000 307.780,90.000 308.000 C 90.000 308.220,89.280 308.400,88.400 308.400 C 87.520 308.400,86.800 308.580,86.800 308.800 C 86.800 309.020,85.821 309.200,84.624 309.200 C 83.427 309.200,82.336 309.380,82.200 309.600 C 82.047 309.848,78.463 310.000,72.776 310.000 L 63.600 310.000 63.600 192.000 L 63.600 74.000 73.200 74.000 C 79.333 74.000,82.800 74.144,82.800 74.400 " stroke="none" fill="#64ec4c" fill-rule="evenodd"></path><path id="path2" d="" stroke="none" fill="#c0d4a0" fill-rule="evenodd"></path><path id="path3" d="" stroke="none" fill="#c0d4a0" fill-rule="evenodd"></path><path id="path4" d="" stroke="none" fill="#c0d4a0" fill-rule="evenodd"></path></g></svg>