  0
SECTION
  2
HEADER
  9
$ACADVER
  1
AC1024
  9
$ACADMAINTVER
 70
     6
  9
$DWGCODEPAGE
  3
UNDEFINED
  9
$INSBASE
 10
0.0
 20
0.0
 30
0.0
  9
$EXTMIN
 10
1.000000000000000E+20
 20
1.000000000000000E+20
 30
1.000000000000000E+20
  9
$EXTMAX
 10
-1.000000000000000E+20
 20
-1.000000000000000E+20
 30
-1.000000000000000E+20
  9
$LIMMIN
 10
0.0
 20
0.0
  9
$LIMMAX
 10
12.0
 20
9.0
  9
$ORTHOMODE
 70
     0
  9
$REGENMODE
 70
     1
  9
$FILLMODE
 70
     1
  9
$QTEXTMODE
 70
     0
  9
$MIRRTEXT
 70
     1
  9
$LTSCALE
 40
1.0
  9
$ATTMODE
 70
     1
  9
$TEXTSIZE
 40
0.2
  9
$TRACEWID
 40
0.05
  9
$TEXTSTYLE
  7
Standard
  9
$CLAYER
  8
0
  9
$CELTYPE
  6
ByLayer
  9
$CECOLOR
 62
   256
  9
$CELTSCALE
 40
1.0
  9
$DISPSILH
 70
     0
  9
$DIMSCALE
 40
1.0
  9
$DIMASZ
 40
0.18
  9
$DIMEXO
 40
0.0625
  9
$DIMDLI
 40
0.38
  9
$DIMRND
 40
0.0
  9
$DIMDLE
 40
0.0
  9
$DIMEXE
 40
0.18
  9
$DIMTP
 40
0.0
  9
$DIMTM
 40
0.0
  9
$DIMTXT
 40
0.18
  9
$DIMCEN
 40
0.09
  9
$DIMTSZ
 40
0.0
  9
$DIMTOL
 70
     0
  9
$DIMLIM
 70
     0
  9
$DIMTIH
 70
     1
  9
$DIMTOH
 70
     1
  9
$DIMSE1
 70
     0
  9
$DIMSE2
 70
     0
  9
$DIMTAD
 70
     0
  9
$DIMZIN
 70
     0
  9
$DIMBLK
  1

  9
$DIMASO
 70
     1
  9
$DIMSHO
 70
     1
  9
$DIMPOST
  1

  9
$DIMAPOST
  1

  9
$DIMALT
 70
     0
  9
$DIMALTD
 70
     2
  9
$DIMALTF
 40
25.4
  9
$DIMLFAC
 40
1.0
  9
$DIMTOFL
 70
     0
  9
$DIMTVP
 40
0.0
  9
$DIMTIX
 70
     0
  9
$DIMSOXD
 70
     0
  9
$DIMSAH
 70
     0
  9
$DIMBLK1
  1

  9
$DIMBLK2
  1

  9
$DIMSTYLE
  2
Standard
  9
$DIMCLRD
 70
     0
  9
$DIMCLRE
 70
     0
  9
$DIMCLRT
 70
     0
  9
$DIMTFAC
 40
1.0
  9
$DIMGAP
 40
0.09
  9
$DIMJUST
 70
     0
  9
$DIMSD1
 70
     0
  9
$DIMSD2
 70
     0
  9
$DIMTOLJ
 70
     1
  9
$DIMTZIN
 70
     0
  9
$DIMALTZ
 70
     0
  9
$DIMALTTZ
 70
     0
  9
$DIMUPT
 70
     0
  9
$DIMDEC
 70
     4
  9
$DIMTDEC
 70
     4
  9
$DIMALTU
 70
     2
  9
$DIMALTTD
 70
     2
  9
$DIMTXSTY
  7
Standard
  9
$DIMAUNIT
 70
     0
  9
$DIMADEC
 70
     0
  9
$DIMALTRND
 40
0.0
  9
$DIMAZIN
 70
     0
  9
$DIMDSEP
 70
    46
  9
$DIMATFIT
 70
     3
  9
$DIMFRAC
 70
     0
  9
$DIMLDRBLK
  1

  9
$DIMLUNIT
 70
     2
  9
$DIMLWD
 70
    -2
  9
$DIMLWE
 70
    -2
  9
$DIMTMOVE
 70
     0
  9
$DIMFXL
 40
1.0
  9
$DIMFXLON
 70
     0
  9
$DIMJOGANG
 40
0.7853981633974483
  9
$DIMTFILL
 70
     0
  9
$DIMTFILLCLR
 70
     0
  9
$DIMARCSYM
 70
     0
  9
$DIMLTYPE
  6

  9
$DIMLTEX1
  6

  9
$DIMLTEX2
  6

  9
$DIMTXTDIRECTION
 70
     0
  9
$LUNITS
 70
     2
  9
$LUPREC
 70
     4
  9
$SKETCHINC
 40
0.1
  9
$FILLETRAD
 40
0.5
  9
$AUNITS
 70
     0
  9
$AUPREC
 70
     0
  9
$MENU
  1
.
  9
$ELEVATION
 40
0.0
  9
$PELEVATION
 40
0.0
  9
$THICKNESS
 40
0.0
  9
$LIMCHECK
 70
     0
  9
$CHAMFERA
 40
0.5
  9
$CHAMFERB
 40
0.5
  9
$CHAMFERC
 40
1.0
  9
$CHAMFERD
 40
0.0
  9
$SKPOLY
 70
     0
  9
$TDCREATE
 40
2458584.679317118
  9
$TDUCREATE
 40
2458584.637650463
  9
$TDUPDATE
 40
2458584.679317118
  9
$TDUUPDATE
 40
2458584.637650463
  9
$TDINDWG
 40
0.0000000116
  9
$TDUSRTIMER
 40
0.0000000116
  9
$USRTIMER
 70
     1
  9
$ANGBASE
 50
0.0
  9
$ANGDIR
 70
     0
  9
$PDMODE
 70
     0
  9
$PDSIZE
 40
0.0
  9
$PLINEWID
 40
0.0
  9
$SPLFRAME
 70
     0
  9
$SPLINETYPE
 70
     6
  9
$SPLINESEGS
 70
     8
  9
$HANDSEED
  5
92
  9
$SURFTAB1
 70
     6
  9
$SURFTAB2
 70
     6
  9
$SURFTYPE
 70
     6
  9
$SURFU
 70
     6
  9
$SURFV
 70
     6
  9
$UCSBASE
  2

  9
$UCSNAME
  2

  9
$UCSORG
 10
0.0
 20
0.0
 30
0.0
  9
$UCSXDIR
 10
1.0
 20
0.0
 30
0.0
  9
$UCSYDIR
 10
0.0
 20
1.0
 30
0.0
  9
$UCSORTHOREF
  2

  9
$UCSORTHOVIEW
 70
     0
  9
$UCSORGTOP
 10
0.0
 20
0.0
 30
0.0
  9
$UCSORGBOTTOM
 10
0.0
 20
0.0
 30
0.0
  9
$UCSORGLEFT
 10
0.0
 20
0.0
 30
0.0
  9
$UCSORGRIGHT
 10
0.0
 20
0.0
 30
0.0
  9
$UCSORGFRONT
 10
0.0
 20
0.0
 30
0.0
  9
$UCSORGBACK
 10
0.0
 20
0.0
 30
0.0
  9
$PUCSBASE
  2

  9
$PUCSNAME
  2

  9
$PUCSORG
 10
0.0
 20
0.0
 30
0.0
  9
$PUCSXDIR
 10
1.0
 20
0.0
 30
0.0
  9
$PUCSYDIR
 10
0.0
 20
1.0
 30
0.0
  9
$PUCSORTHOREF
  2

  9
$PUCSORTHOVIEW
 70
     0
  9
$PUCSORGTOP
 10
0.0
 20
0.0
 30
0.0
  9
$PUCSORGBOTTOM
 10
0.0
 20
0.0
 30
0.0
  9
$PUCSORGLEFT
 10
0.0
 20
0.0
 30
0.0
  9
$PUCSORGRIGHT
 10
0.0
 20
0.0
 30
0.0
  9
$PUCSORGFRONT
 10
0.0
 20
0.0
 30
0.0
  9
$PUCSORGBACK
 10
0.0
 20
0.0
 30
0.0
  9
$USERI1
 70
     0
  9
$USERI2
 70
     0
  9
$USERI3
 70
     0
  9
$USERI4
 70
     0
  9
$USERI5
 70
     0
  9
$USERR1
 40
0.0
  9
$USERR2
 40
0.0
  9
$USERR3
 40
0.0
  9
$USERR4
 40
0.0
  9
$USERR5
 40
0.0
  9
$WORLDVIEW
 70
     1
  9
$SHADEDGE
 70
     3
  9
$SHADEDIF
 70
    70
  9
$TILEMODE
 70
     1
  9
$MAXACTVP
 70
    64
  9
$PINSBASE
 10
0.0
 20
0.0
 30
0.0
  9
$PLIMCHECK
 70
     0
  9
$PEXTMIN
 10
1.000000000000000E+20
 20
1.000000000000000E+20
 30
1.000000000000000E+20
  9
$PEXTMAX
 10
-1.000000000000000E+20
 20
-1.000000000000000E+20
 30
-1.000000000000000E+20
  9
$PLIMMIN
 10
0.0
 20
0.0
  9
$PLIMMAX
 10
12.0
 20
9.0
  9
$UNITMODE
 70
     0
  9
$VISRETAIN
 70
     1
  9
$PLINEGEN
 70
     0
  9
$PSLTSCALE
 70
     1
  9
$TREEDEPTH
 70
  3020
  9
$CMLSTYLE
  2
Standard
  9
$CMLJUST
 70
     0
  9
$CMLSCALE
 40
1.0
  9
$PROXYGRAPHICS
 70
     1
  9
$MEASUREMENT
 70
     0
  9
$CELWEIGHT
370
    -1
  9
$ENDCAPS
280
     0
  9
$JOINSTYLE
280
     0
  9
$LWDISPLAY
290
     1
  9
$INSUNITS
 70
     1
  9
$HYPERLINKBASE
  1

  9
$STYLESHEET
  1

  9
$XEDIT
290
     1
  9
$CEPSNTYPE
380
     0
  9
$PSTYLEMODE
290
     1
  9
$FINGERPRINTGUID
  2
{F41A3113-CEF0-4323-B1AA-E68A3DBB97C5}
  9
$VERSIONGUID
  2
{FAEB1C32-E019-11D5-929B-00C0DF256EC4}
  9
$EXTNAMES
290
     1
  9
$PSVPSCALE
 40
0.0
  9
$OLESTARTUP
290
     0
  9
$SORTENTS
280
   127
  9
$INDEXCTL
280
     0
  9
$HIDETEXT
280
     1
  9
$XCLIPFRAME
280
     2
  9
$HALOGAP
280
     0
  9
$OBSCOLOR
 70
   257
  9
$OBSLTYPE
280
     0
  9
$INTERSECTIONDISPLAY
280
     0
  9
$INTERSECTIONCOLOR
 70
   257
  9
$DIMASSOC
280
     2
  9
$PROJECTNAME
  1

  9
$CAMERADISPLAY
290
     0
  9
$LENSLENGTH
 40
50.0
  9
$CAMERAHEIGHT
 40
0.0
  9
$STEPSPERSEC
 40
2.0
  9
$STEPSIZE
 40
6.0
  9
$3DDWFPREC
 40
2.0
  9
$PSOLWIDTH
 40
0.25
  9
$PSOLHEIGHT
 40
4.0
  9
$LOFTANG1
 40
1.570796326794897
  9
$LOFTANG2
 40
1.570796326794897
  9
$LOFTMAG1
 40
0.0
  9
$LOFTMAG2
 40
0.0
  9
$LOFTPARAM
 70
     7
  9
$LOFTNORMALS
280
     1
  9
$LATITUDE
 40
37.795
  9
$LONGITUDE
 40
-122.394
  9
$NORTHDIRECTION
 40
0.0
  9
$TIMEZONE
 70
 -8000
  9
$LIGHTGLYPHDISPLAY
280
     1
  9
$TILEMODELIGHTSYNCH
280
     1
  9
$CMATERIAL
347
3C
  9
$SOLIDHIST
280
     1
  9
$SHOWHIST
280
     1
  9
$DWFFRAME
280
     2
  9
$DGNFRAME
280
     2
  9
$REALWORLDSCALE
290
     1
  9
$INTERFERECOLOR
 62
   256
  9
$CSHADOW
280
     0
  9
$SHADOWPLANELOCATION
 40
0.0
  0
ENDSEC
  0
SECTION
  2
CLASSES
  0
CLASS
  1
ACDBDICTIONARYWDFLT
  2
AcDbDictionaryWithDefault
  3
ObjectDBX Classes
 90
        0
 91
        4
280
     0
281
     0
  0
CLASS
  1
VISUALSTYLE
  2
AcDbVisualStyle
  3
ObjectDBX Classes
 90
     4095
 91
        4
280
     0
281
     0
  0
CLASS
  1
MATERIAL
  2
AcDbMaterial
  3
ObjectDBX Classes
 90
     1153
 91
        4
280
     0
281
     0
  0
CLASS
  1
SUN
  2
AcDbSun
  3
SCENEOE
 90
     1024
 91
        4
280
     0
281
     0
  0
ENDSEC
  0
SECTION
  2
TABLES
  0
TABLE
  2
VPORT
  5
8
330
0
100
AcDbSymbolTable
 70
     1
  0
VPORT
  5
29
330
8
100
AcDbSymbolTableRecord
100
AcDbViewportTableRecord
  2
*Active
 70
     0
 10
0.0
 20
0.0
 11
1.0
 21
1.0
 12
0.0
 22
0.0
 13
0.0
 23
0.0
 14
0.5
 24
0.5
 15
0.5
 25
0.5
 16
0.0
 26
0.0
 36
1.0
 17
420.9448818897499
 27
-564.4644746335516
 37
0.0
 40
296.2107764667071
 41
2.842198294814993
 42
50.0
 43
0.0
 44
0.0
 50
0.0
 51
0.0
 71
     0
 72
   100
 73
     1
 74
     3
 75
     0
 76
     0
 77
     0
 78
     0
281
     0
 65
     1
110
0.0
120
0.0
130
0.0
111
1.0
121
0.0
131
0.0
112
0.0
122
1.0
132
0.0
 79
     0
146
0.0
 60
     3
 61
     5
292
     1
282
     1
141
0.0
142
0.0
 63
   250
361
3F
  0
ENDTAB
  0
TABLE
  2
LTYPE
  5
5
330
0
100
AcDbSymbolTable
 70
     1
  0
LTYPE
  5
14
330
5
100
AcDbSymbolTableRecord
100
AcDbLinetypeTableRecord
  2
ByBlock
 70
     0
  3

 72
    65
 73
     0
 40
0.0
  0
LTYPE
  5
15
330
5
100
AcDbSymbolTableRecord
100
AcDbLinetypeTableRecord
  2
ByLayer
 70
     0
  3

 72
    65
 73
     0
 40
0.0
  0
LTYPE
  5
16
330
5
100
AcDbSymbolTableRecord
100
AcDbLinetypeTableRecord
  2
Continuous
 70
     0
  3
Solid line
 72
    65
 73
     0
 40
0.0
  0
ENDTAB
  0
TABLE
  2
LAYER
  5
2
330
0
100
AcDbSymbolTable
 70
     2
  0
LAYER
  5
10
330
2
100
AcDbSymbolTableRecord
100
AcDbLayerTableRecord
  2
0
 70
     0
 62
     7
  6
Continuous
370
    -3
390
F
347
3E
  0
LAYER
  5
40
330
2
100
AcDbSymbolTableRecord
100
AcDbLayerTableRecord
  2
Ebene 1
 70
     0
 62
     7
  6
Continuous
370
    -3
390
F
347
3E
  0
ENDTAB
  0
TABLE
  2
STYLE
  5
3
330
0
100
AcDbSymbolTable
 70
     1
  0
STYLE
  5
11
330
3
100
AcDbSymbolTableRecord
100
AcDbTextStyleTableRecord
  2
Standard
 70
     0
 40
0.0
 41
1.0
 50
0.0
 71
     0
 42
0.2
  3
txt
  4

  0
ENDTAB
  0
TABLE
  2
VIEW
  5
6
330
0
100
AcDbSymbolTable
 70
     0
  0
ENDTAB
  0
TABLE
  2
UCS
  5
7
330
0
100
AcDbSymbolTable
 70
     0
  0
ENDTAB
  0
TABLE
  2
APPID
  5
9
330
0
100
AcDbSymbolTable
 70
     1
  0
APPID
  5
12
330
9
100
AcDbSymbolTableRecord
100
AcDbRegAppTableRecord
  2
ACAD
 70
     0
  0
ENDTAB
  0
TABLE
  2
DIMSTYLE
  5
A
330
0
100
AcDbSymbolTable
 70
     1
100
AcDbDimStyleTable
  0
DIMSTYLE
105
27
330
A
100
AcDbSymbolTableRecord
100
AcDbDimStyleTableRecord
  2
Standard
 70
     0
178
     0
340
11
  0
ENDTAB
  0
TABLE
  2
BLOCK_RECORD
  5
1
330
0
100
AcDbSymbolTable
 70
     3
  0
BLOCK_RECORD
  5
1F
330
1
100
AcDbSymbolTableRecord
100
AcDbBlockTableRecord
  2
*Model_Space
340
22
 70
     0
280
     1
281
     0
  0
BLOCK_RECORD
  5
1B
330
1
100
AcDbSymbolTableRecord
100
AcDbBlockTableRecord
  2
*Paper_Space
340
1E
 70
     0
280
     1
281
     0
  0
BLOCK_RECORD
  5
23
330
1
100
AcDbSymbolTableRecord
100
AcDbBlockTableRecord
  2
*Paper_Space0
340
26
 70
     0
280
     1
281
     0
  0
BLOCK_RECORD
  5
41
330
1
100
AcDbSymbolTableRecord
100
AcDbBlockTableRecord
  2
block 2
340
0
102
{BLKREFS
331
42
102
}
 70
     0
280
     1
281
     0
  0
BLOCK_RECORD
  5
63
330
1
100
AcDbSymbolTableRecord
100
AcDbBlockTableRecord
  2
block 3
340
0
102
{BLKREFS
331
64
102
}
 70
     0
280
     1
281
     0
  0
ENDTAB
  0
ENDSEC
  0
SECTION
  2
BLOCKS
  0
BLOCK
  5
20
330
1F
100
AcDbEntity
  8
0
100
AcDbBlockBegin
  2
*Model_Space
 70
     0
 10
0.0
 20
0.0
 30
0.0
  3
*Model_Space
  1

  0
ENDBLK
  5
21
330
1F
100
AcDbEntity
  8
0
100
AcDbBlockEnd
  0
BLOCK
  5
1C
330
1B
100
AcDbEntity
 67
     1
  8
0
100
AcDbBlockBegin
  2
*Paper_Space
 70
     0
 10
0.0
 20
0.0
 30
0.0
  3
*Paper_Space
  1

  0
ENDBLK
  5
1D
330
1B
100
AcDbEntity
 67
     1
  8
0
100
AcDbBlockEnd
  0
BLOCK
  5
24
330
23
100
AcDbEntity
  8
0
100
AcDbBlockBegin
  2
*Paper_Space0
 70
     0
 10
0.0
 20
0.0
 30
0.0
  3
*Paper_Space0
  1

  0
ENDBLK
  5
25
330
23
100
AcDbEntity
  8
0
100
AcDbBlockEnd
  0
BLOCK
  5
43
330
41
100
AcDbEntity
  8
0
100
AcDbBlockBegin
  2
block 2
 70
     0
 10
0.0
 20
0.0
 30
0.0
  3
block 2
  1

  0
SPLINE
  5
45
330
41
100
AcDbEntity
  8
Ebene 1
370
     0
100
AcDbSpline
210
0.0
220
0.0
230
1.0
 70
    11
 71
     3
 72
    17
 73
    13
 74
     0
 42
0.0000000001
 43
0.0000000001
 12
1.0
 22
0.0
 32
0.0
 13
1.0
 23
0.0
 33
0.0
 40
0.0
 40
0.0
 40
0.0
 40
0.0
 40
1.0
 40
1.0
 40
1.0
 40
2.0
 40
2.0
 40
2.0
 40
3.0
 40
3.0
 40
3.0
 40
4.0
 40
4.0
 40
4.0
 40
4.0
 10
168.3583324924957
 20
-455.0288693277507
 30
0.0
 10
107.9187530757426
 20
-455.0288693277507
 30
0.0
 10
58.92272453179521
 20
-504.0211810102628
 30
0.0
 10
58.92272453179521
 20
-564.464484368189
 30
0.0
 10
58.92272453179521
 20
-624.9040496254747
 30
0.0
 10
107.9187530757426
 20
-673.9000799393543
 30
0.0
 10
168.3583324924957
 20
-673.9000799393543
 30
0.0
 10
228.8016216909491
 20
-673.9000799393543
 30
0.0
 10
277.7939333734575
 20
-624.9040496254747
 30
0.0
 10
277.7939333734575
 20
-564.464484368189
 30
0.0
 10
277.7939333734575
 20
-504.0211810102628
 30
0.0
 10
228.8016216909491
 20
-455.0288693277507
 30
0.0
 10
168.3583324924957
 20
-455.0288693277507
 30
0.0
  0
SPLINE
  5
46
330
41
100
AcDbEntity
  8
Ebene 1
370
     0
100
AcDbSpline
210
0.0
220
0.0
230
1.0
 70
    11
 71
     3
 72
    17
 73
    13
 74
     0
 42
0.0000000001
 43
0.0000000001
 12
1.0
 22
0.0
 32
0.0
 13
1.0
 23
0.0
 33
0.0
 40
0.0
 40
0.0
 40
0.0
 40
0.0
 40
1.0
 40
1.0
 40
1.0
 40
2.0
 40
2.0
 40
2.0
 40
3.0
 40
3.0
 40
3.0
 40
4.0
 40
4.0
 40
4.0
 40
4.0
 10
168.3583324924957
 20
-658.1025710289141
 30
0.0
 10
116.6452463784644
 20
-658.1025710289141
 30
0.0
 10
74.72023521216943
 20
-616.1775598626191
 30
0.0
 10
74.72023521216943
 20
-564.464484368189
 30
0.0
 10
74.72023521216943
 20
-512.7476778528508
 30
0.0
 10
116.6452463784644
 20
-470.8263800081259
 30
0.0
 10
168.3583324924957
 20
-470.8263800081259
 30
0.0
 10
220.0751248483593
 20
-470.8263800081259
 30
0.0
 10
261.9964226930842
 20
-512.7476778528508
 30
0.0
 10
261.9964226930842
 20
-564.464484368189
 30
0.0
 10
261.9964226930842
 20
-616.1775598626191
 30
0.0
 10
220.0751248483593
 20
-658.1025710289141
 30
0.0
 10
168.3583324924957
 20
-658.1025710289141
 30
0.0
  0
HATCH
  5
47
330
41
100
AcDbEntity
  8
Ebene 1
 62
    30
420
 15895596
100
AcDbHatch
 10
0.0
 20
0.0
 30
0.0
210
0.0
220
0.0
230
1.0
  2
SOLID
 70
     1
 71
     0
 91
        2
 92
        1
 93
        2
 72
     4
 94
        3
 73
     0
 74
     0
 95
       17
 96
       13
 40
0.0
 40
0.0
 40
0.0
 40
0.0
 40
1.0
 40
1.0
 40
1.0
 40
2.0
 40
2.0
 40
2.0
 40
3.0
 40
3.0
 40
3.0
 40
4.0
 40
4.0
 40
4.0
 40
4.0
 10
168.3583324924957
 20
-455.0288693277507
 10
107.9187530757426
 20
-455.0288693277507
 10
58.92272453179521
 20
-504.0211810102628
 10
58.92272453179521
 20
-564.464484368189
 10
58.92272453179521
 20
-624.9040496254747
 10
107.9187530757426
 20
-673.9000799393543
 10
168.3583324924957
 20
-673.9000799393543
 10
228.8016216909491
 20
-673.9000799393543
 10
277.7939333734575
 20
-624.9040496254747
 10
277.7939333734575
 20
-564.464484368189
 10
277.7939333734575
 20
-504.0211810102628
 10
228.8016216909491
 20
-455.0288693277507
 10
168.3583324924957
 20
-455.0288693277507
 97
        0
 72
     1
 10
168.3583324924957
 20
-455.0288693277507
 11
168.3583324924957
 21
-455.0288693277507
 97
        0
 92
        1
 93
        2
 72
     4
 94
        3
 73
     0
 74
     0
 95
       17
 96
       13
 40
0.0
 40
0.0
 40
0.0
 40
0.0
 40
1.0
 40
1.0
 40
1.0
 40
2.0
 40
2.0
 40
2.0
 40
3.0
 40
3.0
 40
3.0
 40
4.0
 40
4.0
 40
4.0
 40
4.0
 10
168.3583324924957
 20
-658.1025710289141
 10
116.6452463784644
 20
-658.1025710289141
 10
74.72023521216943
 20
-616.1775598626191
 10
74.72023521216943
 20
-564.464484368189
 10
74.72023521216943
 20
-512.7476778528508
 10
116.6452463784644
 20
-470.8263800081259
 10
168.3583324924957
 20
-470.8263800081259
 10
220.0751248483593
 20
-470.8263800081259
 10
261.9964226930842
 20
-512.7476778528508
 10
261.9964226930842
 20
-564.464484368189
 10
261.9964226930842
 20
-616.1775598626191
 10
220.0751248483593
 20
-658.1025710289141
 10
168.3583324924957
 20
-658.1025710289141
 97
        0
 72
     1
 10
168.3583324924957
 20
-658.1025710289141
 11
168.3583324924957
 21
-658.1025710289141
 97
        0
 75
     2
 76
     1
 98
        0
  0
POLYLINE
  5
48
330
41
100
AcDbEntity
  8
Ebene 1
370
     0
100
AcDb2dPolyline
 66
     1
 10
0.0
 20
0.0
 30
0.0
  0
VERTEX
  5
49
330
48
100
AcDbEntity
  8
Ebene 1
370
     0
100
AcDbVertex
100
AcDb2dVertex
 10
236.553762776809
 20
-522.7294968579517
 30
0.0
  0
VERTEX
  5
4A
330
48
100
AcDbEntity
  8
Ebene 1
370
     0
100
AcDbVertex
100
AcDb2dVertex
 10
172.3021490299034
 20
-522.7294968579517
 30
0.0
  0
VERTEX
  5
4B
330
48
100
AcDbEntity
  8
Ebene 1
370
     0
100
AcDbVertex
100
AcDb2dVertex
 10
172.3021490299034
 20
-538.519587974919
 30
0.0
  0
VERTEX
  5
4C
330
48
100
AcDbEntity
  8
Ebene 1
370
     0
100
AcDbVertex
100
AcDb2dVertex
 10
195.3785275194168
 20
-538.519587974919
 30
0.0
  0
VERTEX
  5
4D
330
48
100
AcDbEntity
  8
Ebene 1
370
     0
100
AcDbVertex
100
AcDb2dVertex
 10
195.3785275194168
 20
-606.2009232243254
 30
0.0
  0
VERTEX
  5
4E
330
48
100
AcDbEntity
  8
Ebene 1
370
     0
100
AcDbVertex
100
AcDb2dVertex
 10
213.4662337029786
 20
-606.2009232243254
 30
0.0
  0
VERTEX
  5
4F
330
48
100
AcDbEntity
  8
Ebene 1
370
     0
100
AcDbVertex
100
AcDb2dVertex
 10
213.4662337029786
 20
-538.508458629818
 30
0.0
  0
VERTEX
  5
50
330
48
100
AcDbEntity
  8
Ebene 1
370
     0
100
AcDbVertex
100
AcDb2dVertex
 10
236.553762776809
 20
-538.508458629818
 30
0.0
  0
VERTEX
  5
51
330
48
100
AcDbEntity
  8
Ebene 1
370
     0
100
AcDbVertex
100
AcDb2dVertex
 10
236.553762776809
 20
-522.7294968579517
 30
0.0
  0
SEQEND
  5
52
330
48
100
AcDbEntity
  8
Ebene 1
370
     0
  0
POLYLINE
  5
53
330
41
100
AcDbEntity
  8
Ebene 1
370
     0
100
AcDb2dPolyline
 66
     1
 10
0.0
 20
0.0
 30
0.0
  0
VERTEX
  5
54
330
53
100
AcDbEntity
  8
Ebene 1
370
     0
100
AcDbVertex
100
AcDb2dVertex
 10
164.4037618359926
 20
-538.4988018698132
 30
0.0
  0
VERTEX
  5
55
330
53
100
AcDbEntity
  8
Ebene 1
370
     0
100
AcDbVertex
100
AcDb2dVertex
 10
164.4037618359926
 20
-522.7309977619989
 30
0.0
  0
VERTEX
  5
56
330
53
100
AcDbEntity
  8
Ebene 1
370
     0
100
AcDbVertex
100
AcDb2dVertex
 10
105.437779924604
 20
-522.7309977619989
 30
0.0
  0
VERTEX
  5
57
330
53
100
AcDbEntity
  8
Ebene 1
370
     0
100
AcDbVertex
100
AcDb2dVertex
 10
105.437779924604
 20
-522.7384173254031
 30
0.0
  0
VERTEX
  5
58
330
53
100
AcDbEntity
  8
Ebene 1
370
     0
100
AcDbVertex
100
AcDb2dVertex
 10
105.437779924604
 20
-606.202409968897
 30
0.0
  0
VERTEX
  5
59
330
53
100
AcDbEntity
  8
Ebene 1
370
     0
100
AcDbVertex
100
AcDb2dVertex
 10
164.4037618359926
 20
-606.202409968897
 30
0.0
  0
VERTEX
  5
5A
330
53
100
AcDbEntity
  8
Ebene 1
370
     0
100
AcDbVertex
100
AcDb2dVertex
 10
164.4037618359926
 20
-590.4420254244869
 30
0.0
  0
VERTEX
  5
5B
330
53
100
AcDbEntity
  8
Ebene 1
370
     0
100
AcDbVertex
100
AcDb2dVertex
 10
123.5180523852914
 20
-590.4420254244869
 30
0.0
  0
VERTEX
  5
5C
330
53
100
AcDbEntity
  8
Ebene 1
370
     0
100
AcDbVertex
100
AcDb2dVertex
 10
123.5180523852914
 20
-571.4078080861691
 30
0.0
  0
VERTEX
  5
5D
330
53
100
AcDbEntity
  8
Ebene 1
370
     0
100
AcDbVertex
100
AcDb2dVertex
 10
163.531481713957
 20
-571.4078080861691
 30
0.0
  0
VERTEX
  5
5E
330
53
100
AcDbEntity
  8
Ebene 1
370
     0
100
AcDbVertex
100
AcDb2dVertex
 10
163.531481713957
 20
-555.7921758254997
 30
0.0
  0
VERTEX
  5
5F
330
53
100
AcDbEntity
  8
Ebene 1
370
     0
100
AcDbVertex
100
AcDb2dVertex
 10
123.5180523852914
 20
-555.7921758254997
 30
0.0
  0
VERTEX
  5
60
330
53
100
AcDbEntity
  8
Ebene 1
370
     0
100
AcDbVertex
100
AcDb2dVertex
 10
123.5180523852914
 20
-538.4988018698132
 30
0.0
  0
VERTEX
  5
61
330
53
100
AcDbEntity
  8
Ebene 1
370
     0
100
AcDbVertex
100
AcDb2dVertex
 10
164.4037618359926
 20
-538.4988018698132
 30
0.0
  0
SEQEND
  5
62
330
53
100
AcDbEntity
  8
Ebene 1
370
     0
  0
INSERT
  5
64
330
41
100
AcDbEntity
  8
Ebene 1
100
AcDbBlockReference
  2
block 3
 10
0.0
 20
0.0
 30
0.0
  0
ENDBLK
  5
44
330
41
100
AcDbEntity
  8
0
100
AcDbBlockEnd
  0
BLOCK
  5
65
330
63
100
AcDbEntity
  8
0
100
AcDbBlockBegin
  2
block 3
 70
     0
 10
0.0
 20
0.0
 30
0.0
  3
block 3
  1

  0
SPLINE
  5
67
330
63
100
AcDbEntity
  8
Ebene 1
370
     0
100
AcDbSpline
210
0.0
220
0.0
230
1.0
 70
    11
 71
     3
 72
    98
 73
    94
 74
     0
 42
0.0000000001
 43
0.0000000001
 12
1.0
 22
0.0
 32
0.0
 13
1.0
 23
0.0
 33
0.0
 40
0.0
 40
0.0
 40
0.0
 40
0.0
 40
1.0
 40
1.0
 40
1.0
 40
2.0
 40
2.0
 40
2.0
 40
3.0
 40
3.0
 40
3.0
 40
4.0
 40
4.0
 40
4.0
 40
5.0
 40
5.0
 40
5.0
 40
6.0
 40
6.0
 40
6.0
 40
7.0
 40
7.0
 40
7.0
 40
8.0
 40
8.0
 40
8.0
 40
9.0
 40
9.0
 40
9.0
 40
10.0
 40
10.0
 40
10.0
 40
11.0
 40
11.0
 40
11.0
 40
12.0
 40
12.0
 40
12.0
 40
13.0
 40
13.0
 40
13.0
 40
14.0
 40
14.0
 40
14.0
 40
15.0
 40
15.0
 40
15.0
 40
16.0
 40
16.0
 40
16.0
 40
17.0
 40
17.0
 40
17.0
 40
18.0
 40
18.0
 40
18.0
 40
19.0
 40
19.0
 40
19.0
 40
20.0
 40
20.0
 40
20.0
 40
21.0
 40
21.0
 40
21.0
 40
22.0
 40
22.0
 40
22.0
 40
23.0
 40
23.0
 40
23.0
 40
24.0
 40
24.0
 40
24.0
 40
25.0
 40
25.0
 40
25.0
 40
26.0
 40
26.0
 40
26.0
 40
27.0
 40
27.0
 40
27.0
 40
28.0
 40
28.0
 40
28.0
 40
29.0
 40
29.0
 40
29.0
 40
30.0
 40
30.0
 40
30.0
 40
31.0
 40
31.0
 40
31.0
 40
31.0
 10
361.8586408102055
 20
-561.8802829752967
 30
0.0
 10
361.8586408102055
 20
-561.8802829752967
 30
0.0
 10
391.8664533102055
 20
-561.8802829752967
 30
0.0
 10
391.8664533102055
 20
-561.8802829752967
 30
0.0
 10
391.8664533102055
 20
-561.8802829752967
 30
0.0
 10
391.8664533102055
 20
-596.5336032877967
 30
0.0
 10
391.8664533102055
 20
-596.5336032877967
 30
0.0
 10
388.6018048727055
 20
-599.6312595377967
 30
0.0
 10
384.2897931539555
 20
-602.3519626627967
 30
0.0
 10
378.9343244039555
 20
-604.6937595377967
 30
0.0
 10
373.5764142477055
 20
-607.0365329752967
 30
0.0
 10
366.7121564352055
 20
-608.2093845377967
 30
0.0
 10
358.3435040914555
 20
-608.2093845377967
 30
0.0
 10
351.4787579977055
 20
-608.2093845377967
 30
0.0
 10
345.3483869039555
 20
-607.0795017252967
 30
0.0
 10
339.9494611227055
 20
-604.8197361002967
 30
0.0
 10
334.5505353414555
 20
-602.5599704752967
 30
0.0
 10
329.9680158102055
 20
-599.4837986002967
 30
0.0
 10
326.2014142477055
 20
-595.5912204752967
 30
0.0
 10
322.4348126852055
 20
-591.6996189127967
 30
0.0
 10
319.5466290914555
 20
-587.1166111002967
 30
0.0
 10
317.5378400289555
 20
-581.8431736002967
 30
0.0
 10
315.5290509664555
 20
-576.5697361002967
 30
0.0
 10
314.5246564352055
 20
-570.8783298502967
 30
0.0
 10
314.5246564352055
 20
-564.7679782877967
 30
0.0
 10
314.5246564352055
 20
-558.6586032877967
 30
0.0
 10
315.5700665914555
 20
-552.9242282877967
 30
0.0
 10
317.6633283102055
 20
-547.5668064127967
 30
0.0
 10
319.7546369039555
 20
-542.2113376627967
 30
0.0
 10
322.7053204977055
 20
-537.5218845377967
 30
0.0
 10
326.5153790914555
 20
-533.5043064127967
 30
0.0
 10
330.3229962789555
 20
-529.4867282877967
 30
0.0
 10
334.8645001852055
 20
-526.3070407877967
 30
0.0
 10
340.1379376852055
 20
-523.9623142252967
 30
0.0
 10
345.4113751852055
 20
-521.6205173502967
 30
0.0
 10
351.2277814352055
 20
-520.4466892252967
 30
0.0
 10
357.5900861227055
 20
-520.4466892252967
 30
0.0
 10
361.6901837789555
 20
-520.4466892252967
 30
0.0
 10
365.4567853414555
 20
-520.8861423502967
 30
0.0
 10
368.8898908102055
 20
-521.7650486002967
 30
0.0
 10
372.3210431539555
 20
-522.6439548502967
 30
0.0
 10
375.4382306539555
 20
-523.8373142252967
 30
0.0
 10
378.2438947164555
 20
-525.3431736002967
 30
0.0
 10
381.0471173727055
 20
-526.8500095377967
 30
0.0
 10
383.5368634664555
 20
-528.6293064127967
 30
0.0
 10
385.7141095602055
 20
-530.6791111002967
 30
0.0
 10
387.8898908102055
 20
-532.7318454752967
 30
0.0
 10
389.8142072164555
 20
-534.9291111002967
 30
0.0
 10
391.4899884664555
 20
-537.2709079752967
 30
0.0
 10
391.4899884664555
 20
-537.2709079752967
 30
0.0
 10
380.3151837789555
 20
-547.1898532877967
 30
0.0
 10
380.3151837789555
 20
-547.1898532877967
 30
0.0
 10
377.6354962789555
 20
-543.3412204752967
 30
0.0
 10
374.5183087789555
 20
-540.2435642252967
 30
0.0
 10
370.9616681539555
 20
-537.8988376627967
 30
0.0
 10
367.4030744039555
 20
-535.5570407877967
 30
0.0
 10
362.9455548727055
 20
-534.3832126627967
 30
0.0
 10
357.5900861227055
 20
-534.3832126627967
 30
0.0
 10
353.4880353414555
 20
-534.3832126627967
 30
0.0
 10
349.8054181539555
 20
-535.1996189127967
 30
0.0
 10
346.5412579977055
 20
-536.8314548502967
 30
0.0
 10
343.2766095602055
 20
-538.4642673502967
 30
0.0
 10
340.4929181539555
 20
-540.6420017252967
 30
0.0
 10
338.191640303573
 20
-543.3607517252967
 30
0.0
 10
335.8884259664555
 20
-546.0814548502967
 30
0.0
 10
334.1306134664555
 20
-549.2621189127967
 30
0.0
 10
332.9182111227055
 20
-552.9027439127967
 30
0.0
 10
331.7038556539555
 20
-556.5443454752967
 30
0.0
 10
331.0978986227055
 20
-560.3734470377967
 30
0.0
 10
331.0978986227055
 20
-564.3910251627967
 30
0.0
 10
331.0978986227055
 20
-568.9115329752967
 30
0.0
 10
331.8298322164555
 20
-572.9720798502967
 30
0.0
 10
333.2951642477055
 20
-576.5697361002967
 30
0.0
 10
334.7585431539555
 20
-580.1693454752967
 30
0.0
 10
336.7673322164555
 20
-583.2670017252967
 30
0.0
 10
339.3215314352055
 20
-585.8607517252967
 30
0.0
 10
341.8742658102055
 20
-588.4564548502967
 30
0.0
 10
344.8459454977055
 20
-590.4437595377967
 30
0.0
 10
348.2360822164555
 20
-591.8246189127967
 30
0.0
 10
351.6262189352055
 20
-593.2054782877967
 30
0.0
 10
355.2043439352055
 20
-593.8968845377967
 30
0.0
 10
358.9709454977055
 20
-593.8968845377967
 30
0.0
 10
366.6711408102055
 20
-593.8968845377967
 30
0.0
 10
372.6135236227055
 20
-592.0560642252967
 30
0.0
 10
376.8000470602055
 20
-588.3724704752967
 30
0.0
 10
376.8000470602055
 20
-588.3724704752967
 30
0.0
 10
376.8000470602055
 20
-575.3138767252967
 30
0.0
 10
376.8000470602055
 20
-575.3138767252967
 30
0.0
 10
376.8000470602055
 20
-575.3138767252967
 30
0.0
 10
361.8586408102055
 20
-575.3138767252967
 30
0.0
 10
361.8586408102055
 20
-575.3138767252967
 30
0.0
 10
361.8586408102055
 20
-575.3138767252967
 30
0.0
 10
361.8586408102055
 20
-561.8802829752967
 30
0.0
 10
361.8586408102055
 20
-561.8802829752967
 30
0.0
  0
POLYLINE
  5
68
330
63
100
AcDbEntity
  8
Ebene 1
370
     0
100
AcDb2dPolyline
 66
     1
 10
0.0
 20
0.0
 30
0.0
  0
VERTEX
  5
69
330
68
100
AcDbEntity
  8
Ebene 1
370
     0
100
AcDbVertex
100
AcDb2dVertex
 10
408.5642072164555
 20
-522.4554782877967
 30
0.0
  0
VERTEX
  5
6A
330
68
100
AcDbEntity
  8
Ebene 1
370
     0
100
AcDbVertex
100
AcDb2dVertex
 10
424.3840314352055
 20
-522.4554782877967
 30
0.0
  0
VERTEX
  5
6B
330
68
100
AcDbEntity
  8
Ebene 1
370
     0
100
AcDbVertex
100
AcDb2dVertex
 10
424.3840314352055
 20
-592.1390720377967
 30
0.0
  0
VERTEX
  5
6C
330
68
100
AcDbEntity
  8
Ebene 1
370
     0
100
AcDbVertex
100
AcDb2dVertex
 10
465.6916370826511
 20
-592.1390720377967
 30
0.0
  0
VERTEX
  5
6D
330
68
100
AcDbEntity
  8
Ebene 1
370
     0
100
AcDbVertex
100
AcDb2dVertex
 10
465.6916370826511
 20
-606.2005954752967
 30
0.0
  0
VERTEX
  5
6E
330
68
100
AcDbEntity
  8
Ebene 1
370
     0
100
AcDbVertex
100
AcDb2dVertex
 10
408.5642072164555
 20
-606.2005954752967
 30
0.0
  0
VERTEX
  5
6F
330
68
100
AcDbEntity
  8
Ebene 1
370
     0
100
AcDbVertex
100
AcDb2dVertex
 10
408.5642072164555
 20
-522.4554782877967
 30
0.0
  0
SEQEND
  5
70
330
68
100
AcDbEntity
  8
Ebene 1
370
     0
  0
SPLINE
  5
71
330
63
100
AcDbEntity
  8
Ebene 1
370
     0
100
AcDbSpline
210
0.0
220
0.0
230
1.0
 70
    11
 71
     3
 72
    53
 73
    49
 74
     0
 42
0.0000000001
 43
0.0000000001
 12
1.0
 22
0.0
 32
0.0
 13
1.0
 23
0.0
 33
0.0
 40
0.0
 40
0.0
 40
0.0
 40
0.0
 40
1.0
 40
1.0
 40
1.0
 40
2.0
 40
2.0
 40
2.0
 40
3.0
 40
3.0
 40
3.0
 40
4.0
 40
4.0
 40
4.0
 40
5.0
 40
5.0
 40
5.0
 40
6.0
 40
6.0
 40
6.0
 40
7.0
 40
7.0
 40
7.0
 40
8.0
 40
8.0
 40
8.0
 40
9.0
 40
9.0
 40
9.0
 40
10.0
 40
10.0
 40
10.0
 40
11.0
 40
11.0
 40
11.0
 40
12.0
 40
12.0
 40
12.0
 40
13.0
 40
13.0
 40
13.0
 40
14.0
 40
14.0
 40
14.0
 40
15.0
 40
15.0
 40
15.0
 40
16.0
 40
16.0
 40
16.0
 40
16.0
 10
513.9045392477055
 20
-608.4603611002967
 30
0.0
 10
507.7941876852055
 20
-608.4603611002967
 30
0.0
 10
502.1027814352055
 20
-607.3089939127967
 30
0.0
 10
496.8293439352055
 20
-605.0082126627967
 30
0.0
 10
491.5559064352055
 20
-602.7064548502967
 30
0.0
 10
486.9514142477055
 20
-599.5462986002967
 30
0.0
 10
483.0187970602055
 20
-595.5287204752967
 30
0.0
 10
479.0832501852055
 20
-591.5111423502967
 30
0.0
 10
475.9875470602055
 20
-586.8246189127967
 30
0.0
 10
473.7277814352055
 20
-581.4662204752967
 30
0.0
 10
471.4670392477055
 20
-576.1107517252967
 30
0.0
 10
470.3371564352055
 20
-570.3763767252967
 30
0.0
 10
470.3371564352055
 20
-564.2650486002967
 30
0.0
 10
470.3371564352055
 20
-558.1566501627967
 30
0.0
 10
471.4670392477055
 20
-552.4222751627967
 30
0.0
 10
473.7277814352055
 20
-547.0648532877967
 30
0.0
 10
475.9875470602055
 20
-541.7084079752967
 30
0.0
 10
479.0637189352055
 20
-537.0414157877967
 30
0.0
 10
482.9553204977055
 20
-533.0648532877967
 30
0.0
 10
486.8478986227055
 20
-529.0902439127967
 30
0.0
 10
491.4504376852055
 20
-525.9515720377967
 30
0.0
 10
496.7668439352055
 20
-523.6488376627967
 30
0.0
 10
502.0812970602055
 20
-521.3470798502967
 30
0.0
 10
507.7941876852055
 20
-520.1957126627967
 30
0.0
 10
513.9045392477055
 20
-520.1957126627967
 30
0.0
 10
520.0139142477055
 20
-520.1957126627967
 30
0.0
 10
525.7072736227055
 20
-521.3470798502967
 30
0.0
 10
530.9807111227055
 20
-523.6488376627967
 30
0.0
 10
536.2541486227055
 20
-525.9515720377967
 30
0.0
 10
540.8557111227055
 20
-529.0902439127967
 30
0.0
 10
544.7912579977055
 20
-533.0648532877967
 30
0.0
 10
548.7248517477055
 20
-537.0414157877967
 30
0.0
 10
551.8225079977055
 20
-541.7084079752967
 30
0.0
 10
554.0822736227055
 20
-547.0648532877967
 30
0.0
 10
556.3420392477055
 20
-552.4222751627967
 30
0.0
 10
557.4728986227055
 20
-558.1566501627967
 30
0.0
 10
557.4728986227055
 20
-564.2650486002967
 30
0.0
 10
557.4728986227055
 20
-570.3763767252967
 30
0.0
 10
556.3420392477055
 20
-576.1107517252967
 30
0.0
 10
554.0822736227055
 20
-581.4662204752967
 30
0.0
 10
551.8225079977055
 20
-586.8246189127967
 30
0.0
 10
548.7248517477055
 20
-591.5111423502967
 30
0.0
 10
544.7912579977055
 20
-595.5287204752967
 30
0.0
 10
540.8557111227055
 20
-599.5462986002967
 30
0.0
 10
536.2541486227055
 20
-602.7064548502967
 30
0.0
 10
530.9807111227055
 20
-605.0082126627967
 30
0.0
 10
525.7072736227055
 20
-607.3089939127967
 30
0.0
 10
520.0139142477055
 20
-608.4603611002967
 30
0.0
 10
513.9045392477055
 20
-608.4603611002967
 30
0.0
  0
SPLINE
  5
72
330
63
100
AcDbEntity
  8
Ebene 1
370
     0
100
AcDbSpline
210
0.0
220
0.0
230
1.0
 70
    11
 71
     3
 72
    53
 73
    49
 74
     0
 42
0.0000000001
 43
0.0000000001
 12
1.0
 22
0.0
 32
0.0
 13
1.0
 23
0.0
 33
0.0
 40
0.0
 40
0.0
 40
0.0
 40
0.0
 40
1.0
 40
1.0
 40
1.0
 40
2.0
 40
2.0
 40
2.0
 40
3.0
 40
3.0
 40
3.0
 40
4.0
 40
4.0
 40
4.0
 40
5.0
 40
5.0
 40
5.0
 40
6.0
 40
6.0
 40
6.0
 40
7.0
 40
7.0
 40
7.0
 40
8.0
 40
8.0
 40
8.0
 40
9.0
 40
9.0
 40
9.0
 40
10.0
 40
10.0
 40
10.0
 40
11.0
 40
11.0
 40
11.0
 40
12.0
 40
12.0
 40
12.0
 40
13.0
 40
13.0
 40
13.0
 40
14.0
 40
14.0
 40
14.0
 40
15.0
 40
15.0
 40
15.0
 40
16.0
 40
16.0
 40
16.0
 40
16.0
 10
513.9045392477055
 20
-593.5199314127967
 30
0.0
 10
518.0051251852055
 20
-593.5199314127967
 30
0.0
 10
521.7307111227055
 20
-592.7250095377967
 30
0.0
 10
525.0793439352055
 20
-591.1341892252967
 30
0.0
 10
528.4260236227055
 20
-589.5453220377967
 30
0.0
 10
531.2727033102055
 20
-587.3890720377967
 30
0.0
 10
533.6174298727055
 20
-584.6683689127967
 30
0.0
 10
535.9592267477055
 20
-581.9496189127967
 30
0.0
 10
537.7600079977055
 20
-578.7884861002967
 30
0.0
 10
539.0158673727055
 20
-575.1888767252967
 30
0.0
 10
540.2717267477055
 20
-571.5912204752967
 30
0.0
 10
540.8996564352055
 20
-567.8246189127967
 30
0.0
 10
540.8996564352055
 20
-563.8890720377967
 30
0.0
 10
540.8996564352055
 20
-559.8714939127967
 30
0.0
 10
540.2717267477055
 20
-556.0843845377967
 30
0.0
 10
539.0158673727055
 20
-552.5257907877967
 30
0.0
 10
537.7600079977055
 20
-548.9691501627967
 30
0.0
 10
535.9592267477055
 20
-545.8519626627967
 30
0.0
 10
533.6174298727055
 20
-543.1722751627967
 30
0.0
 10
531.2727033102055
 20
-540.4945407877967
 30
0.0
 10
528.4260236227055
 20
-538.3812595377967
 30
0.0
 10
525.0793439352055
 20
-536.8314548502967
 30
0.0
 10
521.7307111227055
 20
-535.2836032877967
 30
0.0
 10
518.0051251852055
 20
-534.5091892252967
 30
0.0
 10
513.9045392477055
 20
-534.5091892252967
 30
0.0
 10
509.7180158102055
 20
-534.5091892252967
 30
0.0
 10
505.9738751852055
 20
-535.2836032877967
 30
0.0
 10
502.6682111227055
 20
-536.8314548502967
 30
0.0
 10
499.3605939352055
 20
-538.3812595377967
 30
0.0
 10
496.5353986227055
 20
-540.4945407877967
 30
0.0
 10
494.1926251852055
 20
-543.1722751627967
 30
0.0
 10
491.8488751852055
 20
-545.8519626627967
 30
0.0
 10
490.0490704977055
 20
-548.9691501627967
 30
0.0
 10
488.7941876852055
 20
-552.5257907877967
 30
0.0
 10
487.5383283102055
 20
-556.0843845377967
 30
0.0
 10
486.9103986227055
 20
-559.8714939127967
 30
0.0
 10
486.9103986227055
 20
-563.8890720377967
 30
0.0
 10
486.9103986227055
 20
-567.8246189127967
 30
0.0
 10
487.5383283102055
 20
-571.5912204752967
 30
0.0
 10
488.7941876852055
 20
-575.1888767252967
 30
0.0
 10
490.0490704977055
 20
-578.7884861002967
 30
0.0
 10
491.8488751852055
 20
-581.9496189127967
 30
0.0
 10
494.1926251852055
 20
-584.6683689127967
 30
0.0
 10
496.5353986227055
 20
-587.3890720377967
 30
0.0
 10
499.3605939352055
 20
-589.5453220377967
 30
0.0
 10
502.6682111227055
 20
-591.1341892252967
 30
0.0
 10
505.9738751852055
 20
-592.7250095377967
 30
0.0
 10
509.7180158102055
 20
-593.5199314127967
 30
0.0
 10
513.9045392477055
 20
-593.5199314127967
 30
0.0
  0
SPLINE
  5
73
330
63
100
AcDbEntity
  8
Ebene 1
370
     0
100
AcDbSpline
210
0.0
220
0.0
230
1.0
 70
    11
 71
     3
 72
    62
 73
    58
 74
     0
 42
0.0000000001
 43
0.0000000001
 12
1.0
 22
0.0
 32
0.0
 13
1.0
 23
0.0
 33
0.0
 40
0.0
 40
0.0
 40
0.0
 40
0.0
 40
1.0
 40
1.0
 40
1.0
 40
2.0
 40
2.0
 40
2.0
 40
3.0
 40
3.0
 40
3.0
 40
4.0
 40
4.0
 40
4.0
 40
5.0
 40
5.0
 40
5.0
 40
6.0
 40
6.0
 40
6.0
 40
7.0
 40
7.0
 40
7.0
 40
8.0
 40
8.0
 40
8.0
 40
9.0
 40
9.0
 40
9.0
 40
10.0
 40
10.0
 40
10.0
 40
11.0
 40
11.0
 40
11.0
 40
12.0
 40
12.0
 40
12.0
 40
13.0
 40
13.0
 40
13.0
 40
14.0
 40
14.0
 40
14.0
 40
15.0
 40
15.0
 40
15.0
 40
16.0
 40
16.0
 40
16.0
 40
17.0
 40
17.0
 40
17.0
 40
18.0
 40
18.0
 40
18.0
 40
19.0
 40
19.0
 40
19.0
 40
19.0
 10
571.7863751852055
 20
-522.4554782877967
 30
0.0
 10
571.7863751852055
 20
-522.4554782877967
 30
0.0
 10
600.5383283102055
 20
-522.4554782877967
 30
0.0
 10
600.5383283102055
 20
-522.4554782877967
 30
0.0
 10
604.9738751852055
 20
-522.4554782877967
 30
0.0
 10
608.8869611227055
 20
-523.0209079752967
 30
0.0
 10
612.2775861227055
 20
-524.1488376627967
 30
0.0
 10
615.6672345602055
 20
-525.2767673502967
 30
0.0
 10
618.4924298727055
 20
-526.8226657877967
 30
0.0
 10
620.7521954977055
 20
-528.7865329752967
 30
0.0
 10
623.0119611227055
 20
-530.7504001627967
 30
0.0
 10
624.7268048727055
 20
-533.0472751627967
 30
0.0
 10
625.8996564352055
 20
-535.6800876627967
 30
0.0
 10
627.0715314352055
 20
-538.3129001627967
 30
0.0
 10
627.6574689352055
 20
-541.1752048502967
 30
0.0
 10
627.6574689352055
 20
-544.2670017252967
 30
0.0
 10
627.6574689352055
 20
-547.1937595377967
 30
0.0
 10
627.1125470602055
 20
-549.7425876627967
 30
0.0
 10
626.0256329977055
 20
-551.9144626627967
 30
0.0
 10
624.9367658102055
 20
-554.0873142252967
 30
0.0
 10
623.6594220602055
 20
-555.9046970377967
 30
0.0
 10
622.1965314352055
 20
-557.3675876627967
 30
0.0
 10
620.7307111227055
 20
-558.8314548502967
 30
0.0
 10
619.2648908102055
 20
-559.9164157877967
 30
0.0
 10
617.8020001852055
 20
-560.6263767252967
 30
0.0
 10
616.3361798727055
 20
-561.3363376627967
 30
0.0
 10
615.1848126852055
 20
-561.6918064127967
 30
0.0
 10
614.3488751852055
 20
-561.6918064127967
 30
0.0
 10
615.8557111227055
 20
-561.8607517252967
 30
0.0
 10
617.6135236227055
 20
-562.3216892252967
 30
0.0
 10
619.6223126852055
 20
-563.0746189127967
 30
0.0
 10
621.6311017477055
 20
-563.8304782877967
 30
0.0
 10
623.5344220602055
 20
-565.0033298502967
 30
0.0
 10
625.3352033102055
 20
-566.5961032877967
 30
0.0
 10
627.1340314352055
 20
-568.1888767252967
 30
0.0
 10
628.6623517477055
 20
-570.2630954752967
 30
0.0
 10
629.9182111227055
 20
-572.8187595377967
 30
0.0
 10
631.1730939352055
 20
-575.3773532877967
 30
0.0
 10
631.8010236227055
 20
-578.4984470377967
 30
0.0
 10
631.8010236227055
 20
-582.1869236002967
 30
0.0
 10
631.8010236227055
 20
-586.7142673502967
 30
0.0
 10
631.0051251852055
 20
-590.5062595377967
 30
0.0
 10
629.4152814352055
 20
-593.5648532877967
 30
0.0
 10
627.8244611227055
 20
-596.6254001627967
 30
0.0
 10
625.6271954977055
 20
-599.0970798502967
 30
0.0
 10
622.8234845602055
 20
-600.9828220377967
 30
0.0
 10
620.0187970602055
 20
-602.8695407877967
 30
0.0
 10
616.7131329977055
 20
-604.2093845377967
 30
0.0
 10
612.9055158102055
 20
-605.0062595377967
 30
0.0
 10
609.0949689352055
 20
-605.8021579752967
 30
0.0
 10
604.9738751852055
 20
-606.2005954752967
 30
0.0
 10
600.5383283102055
 20
-606.2005954752967
 30
0.0
 10
600.5383283102055
 20
-606.2005954752967
 30
0.0
 10
571.7863751852055
 20
-606.2005954752967
 30
0.0
 10
571.7863751852055
 20
-606.2005954752967
 30
0.0
 10
571.7863751852055
 20
-606.2005954752967
 30
0.0
 10
571.7863751852055
 20
-522.4554782877967
 30
0.0
 10
571.7863751852055
 20
-522.4554782877967
 30
0.0
  0
SPLINE
  5
74
330
63
100
AcDbEntity
  8
Ebene 1
370
     0
100
AcDbSpline
210
0.0
220
0.0
230
1.0
 70
    11
 71
     3
 72
    38
 73
    34
 74
     0
 42
0.0000000001
 43
0.0000000001
 12
1.0
 22
0.0
 32
0.0
 13
1.0
 23
0.0
 33
0.0
 40
0.0
 40
0.0
 40
0.0
 40
0.0
 40
1.0
 40
1.0
 40
1.0
 40
2.0
 40
2.0
 40
2.0
 40
3.0
 40
3.0
 40
3.0
 40
4.0
 40
4.0
 40
4.0
 40
5.0
 40
5.0
 40
5.0
 40
6.0
 40
6.0
 40
6.0
 40
7.0
 40
7.0
 40
7.0
 40
8.0
 40
8.0
 40
8.0
 40
9.0
 40
9.0
 40
9.0
 40
10.0
 40
10.0
 40
10.0
 40
11.0
 40
11.0
 40
11.0
 40
11.0
 10
599.7844220602055
 20
-555.8529392252967
 30
0.0
 10
601.3732892477055
 20
-555.8529392252967
 30
0.0
 10
602.9230939352055
 20
-555.6869236002967
 30
0.0
 10
604.4299298727055
 20
-555.3509861002967
 30
0.0
 10
605.9367658102055
 20
-555.0179782877967
 30
0.0
 10
607.2961408102055
 20
-554.4310642252967
 30
0.0
 10
608.5109845602055
 20
-553.5931736002967
 30
0.0
 10
609.7228986227055
 20
-552.7572361002967
 30
0.0
 10
610.6867658102055
 20
-551.7103611002967
 30
0.0
 10
611.3986798727055
 20
-550.4545017252967
 30
0.0
 10
612.1086408102055
 20
-549.1986423502967
 30
0.0
 10
612.4660626852055
 20
-547.6097751627967
 30
0.0
 10
612.4660626852055
 20
-545.6830173502967
 30
0.0
 10
612.4660626852055
 20
-543.7591892252967
 30
0.0
 10
612.0891095602055
 20
-542.1673923502967
 30
0.0
 10
611.3352033102055
 20
-540.9125095377967
 30
0.0
 10
610.5822736227055
 20
-539.6566501627967
 30
0.0
 10
609.5978986227055
 20
-538.6527439127967
 30
0.0
 10
608.3850079977055
 20
-537.8988376627967
 30
0.0
 10
607.1711408102055
 20
-537.1459079752967
 30
0.0
 10
605.8107892477055
 20
-536.6234470377967
 30
0.0
 10
604.3049298727055
 20
-536.3295017252967
 30
0.0
 10
602.7980939352055
 20
-536.0375095377967
 30
0.0
 10
601.2912579977055
 20
-535.8900486002967
 30
0.0
 10
599.7844220602055
 20
-535.8900486002967
 30
0.0
 10
599.7844220602055
 20
-535.8900486002967
 30
0.0
 10
586.9777814352055
 20
-535.8900486002967
 30
0.0
 10
586.9777814352055
 20
-535.8900486002967
 30
0.0
 10
586.9777814352055
 20
-535.8900486002967
 30
0.0
 10
586.9777814352055
 20
-555.8529392252967
 30
0.0
 10
586.9777814352055
 20
-555.8529392252967
 30
0.0
 10
586.9777814352055
 20
-555.8529392252967
 30
0.0
 10
599.7844220602055
 20
-555.8529392252967
 30
0.0
 10
599.7844220602055
 20
-555.8529392252967
 30
0.0
  0
SPLINE
  5
75
330
63
100
AcDbEntity
  8
Ebene 1
370
     0
100
AcDbSpline
210
0.0
220
0.0
230
1.0
 70
    11
 71
     3
 72
    38
 73
    34
 74
     0
 42
0.0000000001
 43
0.0000000001
 12
1.0
 22
0.0
 32
0.0
 13
1.0
 23
0.0
 33
0.0
 40
0.0
 40
0.0
 40
0.0
 40
0.0
 40
1.0
 40
1.0
 40
1.0
 40
2.0
 40
2.0
 40
2.0
 40
3.0
 40
3.0
 40
3.0
 40
4.0
 40
4.0
 40
4.0
 40
5.0
 40
5.0
 40
5.0
 40
6.0
 40
6.0
 40
6.0
 40
7.0
 40
7.0
 40
7.0
 40
8.0
 40
8.0
 40
8.0
 40
9.0
 40
9.0
 40
9.0
 40
10.0
 40
10.0
 40
10.0
 40
11.0
 40
11.0
 40
11.0
 40
11.0
 10
600.4123517477055
 20
-592.7660251627967
 30
0.0
 10
601.9191876852055
 20
-592.7660251627967
 30
0.0
 10
603.5705548727055
 20
-592.6625095377967
 30
0.0
 10
605.3723126852055
 20
-592.4525486002967
 30
0.0
 10
607.1711408102055
 20
-592.2445407877967
 30
0.0
 10
608.8654767477055
 20
-591.7425876627967
 30
0.0
 10
610.4572736227055
 20
-590.9457126627967
 30
0.0
 10
612.0461408102055
 20
-590.1517673502967
 30
0.0
 10
613.3859845602055
 20
-588.9798923502967
 30
0.0
 10
614.4748517477055
 20
-587.4300876627967
 30
0.0
 10
615.5617658102055
 20
-585.8822361002967
 30
0.0
 10
616.1066876852055
 20
-583.7699314127967
 30
0.0
 10
616.1066876852055
 20
-581.0902439127967
 30
0.0
 10
616.1066876852055
 20
-578.5785251627967
 30
0.0
 10
615.5832501852055
 20
-576.5502048502967
 30
0.0
 10
614.5373517477055
 20
-575.0004001627967
 30
0.0
 10
613.4895001852055
 20
-573.4525486002967
 30
0.0
 10
612.1926251852055
 20
-572.2386814127967
 30
0.0
 10
610.6447736227055
 20
-571.3597751627967
 30
0.0
 10
609.0949689352055
 20
-570.4808689127967
 30
0.0
 10
607.4006329977055
 20
-569.8744236002967
 30
0.0
 10
605.5598126852055
 20
-569.5384861002967
 30
0.0
 10
603.7180158102055
 20
-569.2054782877967
 30
0.0
 10
602.0012189352055
 20
-569.0365329752967
 30
0.0
 10
600.4123517477055
 20
-569.0365329752967
 30
0.0
 10
600.4123517477055
 20
-569.0365329752967
 30
0.0
 10
586.9777814352055
 20
-569.0365329752967
 30
0.0
 10
586.9777814352055
 20
-569.0365329752967
 30
0.0
 10
586.9777814352055
 20
-569.0365329752967
 30
0.0
 10
586.9777814352055
 20
-592.7660251627967
 30
0.0
 10
586.9777814352055
 20
-592.7660251627967
 30
0.0
 10
586.9777814352055
 20
-592.7660251627967
 30
0.0
 10
600.4123517477055
 20
-592.7660251627967
 30
0.0
 10
600.4123517477055
 20
-592.7660251627967
 30
0.0
  0
POLYLINE
  5
76
330
63
100
AcDbEntity
  8
Ebene 1
370
     0
100
AcDb2dPolyline
 66
     1
 10
0.0
 20
0.0
 30
0.0
  0
VERTEX
  5
77
330
76
100
AcDbEntity
  8
Ebene 1
370
     0
100
AcDbVertex
100
AcDb2dVertex
 10
667.8342267477055
 20
-522.4554782877967
 30
0.0
  0
VERTEX
  5
78
330
76
100
AcDbEntity
  8
Ebene 1
370
     0
100
AcDbVertex
100
AcDb2dVertex
 10
684.1564923727055
 20
-522.4554782877967
 30
0.0
  0
VERTEX
  5
79
330
76
100
AcDbEntity
  8
Ebene 1
370
     0
100
AcDbVertex
100
AcDb2dVertex
 10
715.9221173727055
 20
-606.2005954752967
 30
0.0
  0
VERTEX
  5
7A
330
76
100
AcDbEntity
  8
Ebene 1
370
     0
100
AcDbVertex
100
AcDb2dVertex
 10
698.3439923727055
 20
-606.2005954752967
 30
0.0
  0
VERTEX
  5
7B
330
76
100
AcDbEntity
  8
Ebene 1
370
     0
100
AcDbVertex
100
AcDb2dVertex
 10
691.0627423727055
 20
-584.9818454752967
 30
0.0
  0
VERTEX
  5
7C
330
76
100
AcDbEntity
  8
Ebene 1
370
     0
100
AcDbVertex
100
AcDb2dVertex
 10
659.9240704977055
 20
-584.9818454752967
 30
0.0
  0
VERTEX
  5
7D
330
76
100
AcDbEntity
  8
Ebene 1
370
     0
100
AcDbVertex
100
AcDb2dVertex
 10
652.6428204977055
 20
-606.2005954752967
 30
0.0
  0
VERTEX
  5
7E
330
76
100
AcDbEntity
  8
Ebene 1
370
     0
100
AcDbVertex
100
AcDb2dVertex
 10
636.0695783102055
 20
-606.2005954752967
 30
0.0
  0
VERTEX
  5
7F
330
76
100
AcDbEntity
  8
Ebene 1
370
     0
100
AcDbVertex
100
AcDb2dVertex
 10
667.8342267477055
 20
-522.4554782877967
 30
0.0
  0
SEQEND
  5
80
330
76
100
AcDbEntity
  8
Ebene 1
370
     0
  0
POLYLINE
  5
81
330
63
100
AcDbEntity
  8
Ebene 1
370
     0
100
AcDb2dPolyline
 66
     1
 10
0.0
 20
0.0
 30
0.0
  0
VERTEX
  5
82
330
81
100
AcDbEntity
  8
Ebene 1
370
     0
100
AcDbVertex
100
AcDb2dVertex
 10
686.5432111227055
 20
-571.9242282877967
 30
0.0
  0
VERTEX
  5
83
330
81
100
AcDbEntity
  8
Ebene 1
370
     0
100
AcDbVertex
100
AcDb2dVertex
 10
675.4943829977055
 20
-539.4056736002967
 30
0.0
  0
VERTEX
  5
84
330
81
100
AcDbEntity
  8
Ebene 1
370
     0
100
AcDbVertex
100
AcDb2dVertex
 10
664.3186017477055
 20
-571.9242282877967
 30
0.0
  0
VERTEX
  5
85
330
81
100
AcDbEntity
  8
Ebene 1
370
     0
100
AcDbVertex
100
AcDb2dVertex
 10
686.5432111227055
 20
-571.9242282877967
 30
0.0
  0
SEQEND
  5
86
330
81
100
AcDbEntity
  8
Ebene 1
370
     0
  0
POLYLINE
  5
87
330
63
100
AcDbEntity
  8
Ebene 1
370
     0
100
AcDb2dPolyline
 66
     1
 10
0.0
 20
0.0
 30
0.0
  0
VERTEX
  5
88
330
87
100
AcDbEntity
  8
Ebene 1
370
     0
100
AcDbVertex
100
AcDb2dVertex
 10
725.8400861227055
 20
-522.4554782877967
 30
0.0
  0
VERTEX
  5
89
330
87
100
AcDbEntity
  8
Ebene 1
370
     0
100
AcDbVertex
100
AcDb2dVertex
 10
741.6594220602055
 20
-522.4554782877967
 30
0.0
  0
VERTEX
  5
8A
330
87
100
AcDbEntity
  8
Ebene 1
370
     0
100
AcDbVertex
100
AcDb2dVertex
 10
741.6594220602055
 20
-592.1390720377967
 30
0.0
  0
VERTEX
  5
8B
330
87
100
AcDbEntity
  8
Ebene 1
370
     0
100
AcDbVertex
100
AcDb2dVertex
 10
782.9670392477055
 20
-592.1390720377967
 30
0.0
  0
VERTEX
  5
8C
330
87
100
AcDbEntity
  8
Ebene 1
370
     0
100
AcDbVertex
100
AcDb2dVertex
 10
782.9670392477055
 20
-606.2005954752967
 30
0.0
  0
VERTEX
  5
8D
330
87
100
AcDbEntity
  8
Ebene 1
370
     0
100
AcDbVertex
100
AcDb2dVertex
 10
725.8400861227055
 20
-606.2005954752967
 30
0.0
  0
VERTEX
  5
8E
330
87
100
AcDbEntity
  8
Ebene 1
370
     0
100
AcDbVertex
100
AcDb2dVertex
 10
725.8400861227055
 20
-522.4554782877967
 30
0.0
  0
SEQEND
  5
8F
330
87
100
AcDbEntity
  8
Ebene 1
370
     0
  0
ENDBLK
  5
66
330
63
100
AcDbEntity
  8
0
100
AcDbBlockEnd
  0
ENDSEC
  0
SECTION
  2
ENTITIES
  0
INSERT
  5
42
330
1F
100
AcDbEntity
  8
Ebene 1
100
AcDbBlockReference
  2
block 2
 10
0.0
 20
0.0
 30
0.0
  0
ENDSEC
  0
SECTION
  2
OBJECTS
  0
DICTIONARY
  5
C
330
0
100
AcDbDictionary
281
     1
  3
ACAD_GROUP
350
D
  3
ACAD_LAYOUT
350
1A
  3
ACAD_MATERIAL
350
3B
  3
ACAD_MLEADERSTYLE
350
91
  3
ACAD_MLINESTYLE
350
17
  3
ACAD_PLOTSETTINGS
350
19
  3
ACAD_PLOTSTYLENAME
350
E
  3
ACAD_TABLESTYLE
350
90
  3
ACAD_VISUALSTYLE
350
2A
  0
SUN
  5
3F
330
29
100
AcDbSun
 90
        1
290
     0
 63
     7
421
 16777215
 40
1.0
291
     1
 91
  2455826
 92
 54000000
292
     0
 70
     2
 71
   256
280
     1
  0
DICTIONARY
  5
D
102
{ACAD_REACTORS
330
C
102
}
330
C
100
AcDbDictionary
281
     1
  0
DICTIONARY
  5
1A
102
{ACAD_REACTORS
330
C
102
}
330
C
100
AcDbDictionary
281
     1
  3
Layout1
350
1E
  3
Layout2
350
26
  3
Model
350
22
  0
DICTIONARY
  5
3B
102
{ACAD_REACTORS
330
C
102
}
330
C
100
AcDbDictionary
281
     1
  3
ByBlock
350
3D
  3
ByLayer
350
3C
  3
Global
350
3E
  0
DICTIONARY
  5
91
102
{ACAD_REACTORS
330
C
102
}
330
C
100
AcDbDictionary
281
     1
  0
DICTIONARY
  5
17
102
{ACAD_REACTORS
330
C
102
}
330
C
100
AcDbDictionary
281
     1
  3
Standard
350
18
  0
DICTIONARY
  5
19
102
{ACAD_REACTORS
330
C
102
}
330
C
100
AcDbDictionary
281
     1
  0
ACDBDICTIONARYWDFLT
  5
E
102
{ACAD_REACTORS
330
C
102
}
330
C
100
AcDbDictionary
281
     1
  3
Normal
350
F
100
AcDbDictionaryWithDefault
340
F
  0
DICTIONARY
  5
90
102
{ACAD_REACTORS
330
C
102
}
330
C
100
AcDbDictionary
281
     1
  0
DICTIONARY
  5
2A
102
{ACAD_REACTORS
330
C
102
}
330
C
100
AcDbDictionary
281
     1
  3
2dWireframe
350
2F
  3
3D Hidden
350
31
  3
3dWireframe
350
30
  3
Basic
350
32
  3
Brighten
350
36
  3
ColorChange
350
3A
  3
Conceptual
350
34
  3
Dim
350
35
  3
Facepattern
350
39
  3
Flat
350
2B
  3
FlatWithEdges
350
2C
  3
Gouraud
350
2D
  3
GouraudWithEdges
350
2E
  3
Linepattern
350
38
  3
Realistic
350
33
  3
Thicken
350
37
  0
LAYOUT
  5
1E
102
{ACAD_REACTORS
330
1A
102
}
330
1A
100
AcDbPlotSettings
  1

  2
none_device
  4

  6

 40
0.0
 41
0.0
 42
0.0
 43
0.0
 44
0.0
 45
0.0
 46
0.0
 47
0.0
 48
0.0
 49
0.0
140
0.0
141
0.0
142
1.0
143
1.0
 70
   688
 72
     0
 73
     0
 74
     5
  7

 75
    16
 76
     0
 77
     2
 78
   300
147
1.0
148
0.0
149
0.0
100
AcDbLayout
  1
Layout1
 70
     1
 71
     1
 10
0.0
 20
0.0
 11
12.0
 21
9.0
 12
0.0
 22
0.0
 32
0.0
 14
1.000000000000000E+20
 24
1.000000000000000E+20
 34
1.000000000000000E+20
 15
-1.000000000000000E+20
 25
-1.000000000000000E+20
 35
-1.000000000000000E+20
146
0.0
 13
0.0
 23
0.0
 33
0.0
 16
1.0
 26
0.0
 36
0.0
 17
0.0
 27
1.0
 37
0.0
 76
     0
330
1B
  0
LAYOUT
  5
26
102
{ACAD_REACTORS
330
1A
102
}
330
1A
100
AcDbPlotSettings
  1

  2
none_device
  4

  6

 40
0.0
 41
0.0
 42
0.0
 43
0.0
 44
0.0
 45
0.0
 46
0.0
 47
0.0
 48
0.0
 49
0.0
140
0.0
141
0.0
142
1.0
143
1.0
 70
   688
 72
     0
 73
     0
 74
     5
  7

 75
    16
 76
     0
 77
     2
 78
   300
147
1.0
148
0.0
149
0.0
100
AcDbLayout
  1
Layout2
 70
     1
 71
     2
 10
0.0
 20
0.0
 11
0.0
 21
0.0
 12
0.0
 22
0.0
 32
0.0
 14
0.0
 24
0.0
 34
0.0
 15
0.0
 25
0.0
 35
0.0
146
0.0
 13
0.0
 23
0.0
 33
0.0
 16
1.0
 26
0.0
 36
0.0
 17
0.0
 27
1.0
 37
0.0
 76
     0
330
23
  0
LAYOUT
  5
22
102
{ACAD_REACTORS
330
1A
102
}
330
1A
100
AcDbPlotSettings
  1

  2
none_device
  4

  6

 40
0.0
 41
0.0
 42
0.0
 43
0.0
 44
0.0
 45
0.0
 46
0.0
 47
0.0
 48
0.0
 49
0.0
140
0.0
141
0.0
142
1.0
143
1.0
 70
  1712
 72
     0
 73
     0
 74
     0
  7

 75
     0
 76
     0
 77
     2
 78
   300
147
1.0
148
0.0
149
0.0
100
AcDbLayout
  1
Model
 70
     1
 71
     0
 10
0.0
 20
0.0
 11
12.0
 21
9.0
 12
0.0
 22
0.0
 32
0.0
 14
1.000000000000000E+20
 24
1.000000000000000E+20
 34
1.000000000000000E+20
 15
-1.000000000000000E+20
 25
-1.000000000000000E+20
 35
-1.000000000000000E+20
146
0.0
 13
0.0
 23
0.0
 33
0.0
 16
1.0
 26
0.0
 36
0.0
 17
0.0
 27
1.0
 37
0.0
 76
     0
330
1F
331
29
  0
MATERIAL
  5
3D
102
{ACAD_REACTORS
330
3B
102
}
330
3B
100
AcDbMaterial
  1
ByBlock
 72
     1
 94
      127
  0
MATERIAL
  5
3C
102
{ACAD_REACTORS
330
3B
102
}
330
3B
100
AcDbMaterial
  1
ByLayer
 72
     1
 94
      127
  0
MATERIAL
  5
3E
102
{ACAD_REACTORS
330
3B
102
}
330
3B
100
AcDbMaterial
  1
Global
 72
     1
 94
      127
  0
MLINESTYLE
  5
18
102
{ACAD_REACTORS
330
17
102
}
330
17
100
AcDbMlineStyle
  2
Standard
 70
     0
  3

 62
   256
 51
90.0
 52
90.0
 71
     2
 49
0.5
 62
   256
  6
BYLAYER
 49
-0.5
 62
   256
  6
BYLAYER
  0
ACDBPLACEHOLDER
  5
F
102
{ACAD_REACTORS
330
E
102
}
330
E
  0
VISUALSTYLE
  5
2F
102
{ACAD_REACTORS
330
2A
102
}
330
2A
100
AcDbVisualStyle
  2
2dWireframe
 70
     4
177
     2
291
     0
 71
     0
176
     1
 72
     2
176
     1
 73
     0
176
     1
 90
        0
176
     1
 40
-0.6
176
     1
 41
-30.0
176
     1
 62
     5
 63
     7
421
 16777215
176
     1
 74
     1
176
     1
 91
        4
176
     1
 64
     7
176
     1
 65
   257
176
     1
 75
     1
176
     1
175
     1
176
     1
 42
1.0
176
     1
 92
        0
176
     1
 66
   257
176
     1
 43
1.0
176
     1
 76
     1
176
     1
 77
     6
176
     1
 78
     2
176
     1
 67
     7
176
     1
 79
     5
176
     1
170
     0
176
     1
171
     0
176
     1
290
     0
176
     1
 93
        1
176
     1
 44
0.0
176
     1
173
     0
176
     1
  0
VISUALSTYLE
  5
31
102
{ACAD_REACTORS
330
2A
102
}
330
2A
100
AcDbVisualStyle
  2
3D Hidden
 70
     6
177
     2
291
     0
 71
     1
176
     1
 72
     2
176
     1
 73
     2
176
     1
 90
        0
176
     1
 40
-0.6
176
     1
 41
-30.0
176
     1
 62
     5
 63
     7
421
 16777215
176
     1
 74
     2
176
     1
 91
        2
176
     1
 64
     7
176
     1
 65
   257
176
     1
 75
     2
176
     1
175
     1
176
     1
 42
40.0
176
     1
 92
        0
176
     1
 66
   257
176
     1
 43
1.0
176
     1
 76
     1
176
     1
 77
     6
176
     1
 78
     2
176
     1
 67
     7
176
     1
 79
     3
176
     1
170
     0
176
     1
171
     0
176
     1
290
     0
176
     1
 93
        1
176
     1
 44
0.0
176
     1
173
     0
176
     1
  0
VISUALSTYLE
  5
30
102
{ACAD_REACTORS
330
2A
102
}
330
2A
100
AcDbVisualStyle
  2
3dWireframe
 70
     5
177
     2
291
     0
 71
     0
176
     1
 72
     2
176
     1
 73
     0
176
     1
 90
        0
176
     1
 40
-0.6
176
     1
 41
-30.0
176
     1
 62
     5
 63
     7
421
 16777215
176
     1
 74
     1
176
     1
 91
        4
176
     1
 64
     7
176
     1
 65
   257
176
     1
 75
     1
176
     1
175
     1
176
     1
 42
1.0
176
     1
 92
        0
176
     1
 66
   257
176
     1
 43
1.0
176
     1
 76
     1
176
     1
 77
     6
176
     1
 78
     2
176
     1
 67
     7
176
     1
 79
     5
176
     1
170
     0
176
     1
171
     0
176
     1
290
     0
176
     1
 93
        1
176
     1
 44
0.0
176
     1
173
     0
176
     1
  0
VISUALSTYLE
  5
32
102
{ACAD_REACTORS
330
2A
102
}
330
2A
100
AcDbVisualStyle
  2
Basic
 70
     7
177
     2
291
     1
 71
     1
176
     1
 72
     0
176
     1
 73
     1
176
     1
 90
        0
176
     1
 40
-0.6
176
     1
 41
-30.0
176
     1
 62
     5
 63
     7
421
 16777215
176
     1
 74
     0
176
     1
 91
        4
176
     1
 64
     7
176
     1
 65
   257
176
     1
 75
     1
176
     1
175
     1
176
     1
 42
1.0
176
     1
 92
        8
176
     1
 66
     7
176
     1
 43
1.0
176
     1
 76
     1
176
     1
 77
     6
176
     1
 78
     2
176
     1
 67
     7
176
     1
 79
     5
176
     1
170
     0
176
     1
171
     0
176
     1
290
     0
176
     1
 93
        1
176
     1
 44
0.0
176
     1
173
     0
176
     1
  0
VISUALSTYLE
  5
36
102
{ACAD_REACTORS
330
2A
102
}
330
2A
100
AcDbVisualStyle
  2
Brighten
 70
    12
177
     2
291
     1
 71
     2
176
     1
 72
     2
176
     1
 73
     0
176
     1
 90
        0
176
     1
 40
-0.6
176
     1
 41
-30.0
176
     1
 62
     5
 63
     7
421
 16777215
176
     1
 74
     1
176
     1
 91
        4
176
     1
 64
     7
176
     1
 65
   257
176
     1
 75
     1
176
     1
175
     1
176
     1
 42
1.0
176
     1
 92
        8
176
     1
 66
     7
176
     1
 43
1.0
176
     1
 76
     1
176
     1
 77
     6
176
     1
 78
     2
176
     1
 67
     7
176
     1
 79
     5
176
     1
170
     0
176
     1
171
     0
176
     1
290
     0
176
     1
 93
        1
176
     1
 44
50.0
176
     1
173
     0
176
     1
  0
VISUALSTYLE
  5
3A
102
{ACAD_REACTORS
330
2A
102
}
330
2A
100
AcDbVisualStyle
  2
ColorChange
 70
    16
177
     2
291
     1
 71
     2
176
     1
 72
     2
176
     1
 73
     3
176
     1
 90
        0
176
     1
 40
-0.6
176
     1
 41
-30.0
176
     1
 62
     5
 63
     8
421
  8421504
176
     1
 74
     1
176
     1
 91
        4
176
     1
 64
     7
176
     1
 65
   257
176
     1
 75
     1
176
     1
175
     1
176
     1
 42
1.0
176
     1
 92
        8
176
     1
 66
     8
424
  8421504
176
     1
 43
1.0
176
     1
 76
     1
176
     1
 77
     6
176
     1
 78
     2
176
     1
 67
     7
176
     1
 79
     5
176
     1
170
     0
176
     1
171
     0
176
     1
290
     0
176
     1
 93
        1
176
     1
 44
0.0
176
     1
173
     0
176
     1
  0
VISUALSTYLE
  5
34
102
{ACAD_REACTORS
330
2A
102
}
330
2A
100
AcDbVisualStyle
  2
Conceptual
 70
     9
177
     2
291
     0
 71
     3
176
     1
 72
     2
176
     1
 73
     0
176
     1
 90
        0
176
     1
 40
-0.6
176
     1
 41
-30.0
176
     1
 62
     5
 63
     7
421
 16777215
176
     1
 74
     2
176
     1
 91
        2
176
     1
 64
     7
176
     1
 65
   257
176
     1
 75
     1
176
     1
175
     1
176
     1
 42
40.0
176
     1
 92
        8
176
     1
 66
     7
176
     1
 43
1.0
176
     1
 76
     1
176
     1
 77
     6
176
     1
 78
     2
176
     1
 67
     7
176
     1
 79
     3
176
     1
170
     0
176
     1
171
     0
176
     1
290
     0
176
     1
 93
        1
176
     1
 44
0.0
176
     1
173
     0
176
     1
  0
VISUALSTYLE
  5
35
102
{ACAD_REACTORS
330
2A
102
}
330
2A
100
AcDbVisualStyle
  2
Dim
 70
    11
177
     2
291
     1
 71
     2
176
     1
 72
     2
176
     1
 73
     0
176
     1
 90
        0
176
     1
 40
-0.6
176
     1
 41
-30.0
176
     1
 62
     5
 63
     7
421
 16777215
176
     1
 74
     1
176
     1
 91
        4
176
     1
 64
     7
176
     1
 65
   257
176
     1
 75
     1
176
     1
175
     1
176
     1
 42
1.0
176
     1
 92
        8
176
     1
 66
     7
176
     1
 43
1.0
176
     1
 76
     1
176
     1
 77
     6
176
     1
 78
     2
176
     1
 67
     7
176
     1
 79
     5
176
     1
170
     0
176
     1
171
     0
176
     1
290
     0
176
     1
 93
        1
176
     1
 44
-50.0
176
     1
173
     0
176
     1
  0
VISUALSTYLE
  5
39
102
{ACAD_REACTORS
330
2A
102
}
330
2A
100
AcDbVisualStyle
  2
Facepattern
 70
    15
177
     2
291
     1
 71
     2
176
     1
 72
     2
176
     1
 73
     0
176
     1
 90
        0
176
     1
 40
-0.6
176
     1
 41
-30.0
176
     1
 62
     5
 63
     7
421
 16777215
176
     1
 74
     1
176
     1
 91
        4
176
     1
 64
     7
176
     1
 65
   257
176
     1
 75
     1
176
     1
175
     1
176
     1
 42
1.0
176
     1
 92
        8
176
     1
 66
     7
176
     1
 43
1.0
176
     1
 76
     1
176
     1
 77
     6
176
     1
 78
     2
176
     1
 67
     7
176
     1
 79
     5
176
     1
170
     0
176
     1
171
     0
176
     1
290
     0
176
     1
 93
        1
176
     1
 44
0.0
176
     1
173
     0
176
     1
  0
VISUALSTYLE
  5
2B
102
{ACAD_REACTORS
330
2A
102
}
330
2A
100
AcDbVisualStyle
  2
Flat
 70
     0
177
     2
291
     1
 71
     2
176
     1
 72
     1
176
     1
 73
     1
176
     1
 90
        2
176
     1
 40
-0.6
176
     1
 41
30.0
176
     1
 62
     5
 63
     7
421
 16777215
176
     1
 74
     0
176
     1
 91
        4
176
     1
 64
     7
176
     1
 65
   257
176
     1
 75
     1
176
     1
175
     1
176
     1
 42
1.0
176
     1
 92
        8
176
     1
 66
     7
176
     1
 43
1.0
176
     1
 76
     1
176
     1
 77
     6
176
     1
 78
     2
176
     1
 67
     7
176
     1
 79
     5
176
     1
170
     0
176
     1
171
     0
176
     1
290
     0
176
     1
 93
       13
176
     1
 44
0.0
176
     1
173
     0
176
     1
  0
VISUALSTYLE
  5
2C
102
{ACAD_REACTORS
330
2A
102
}
330
2A
100
AcDbVisualStyle
  2
FlatWithEdges
 70
     1
177
     2
291
     1
 71
     2
176
     1
 72
     1
176
     1
 73
     1
176
     1
 90
        2
176
     1
 40
-0.6
176
     1
 41
30.0
176
     1
 62
     5
 63
     7
421
 16777215
176
     1
 74
     1
176
     1
 91
        4
176
     1
 64
     7
176
     1
 65
   257
176
     1
 75
     1
176
     1
175
     1
176
     1
 42
1.0
176
     1
 92
        0
176
     1
 66
   257
176
     1
 43
1.0
176
     1
 76
     1
176
     1
 77
     6
176
     1
 78
     2
176
     1
 67
     7
176
     1
 79
     5
176
     1
170
     0
176
     1
171
     0
176
     1
290
     0
176
     1
 93
       13
176
     1
 44
0.0
176
     1
173
     0
176
     1
  0
VISUALSTYLE
  5
2D
102
{ACAD_REACTORS
330
2A
102
}
330
2A
100
AcDbVisualStyle
  2
Gouraud
 70
     2
177
     2
291
     1
 71
     2
176
     1
 72
     2
176
     1
 73
     1
176
     1
 90
        2
176
     1
 40
-0.6
176
     1
 41
30.0
176
     1
 62
     5
 63
     7
421
 16777215
176
     1
 74
     0
176
     1
 91
        4
176
     1
 64
     7
176
     1
 65
   257
176
     1
 75
     1
176
     1
175
     1
176
     1
 42
1.0
176
     1
 92
        0
176
     1
 66
     7
176
     1
 43
1.0
176
     1
 76
     1
176
     1
 77
     6
176
     1
 78
     2
176
     1
 67
     7
176
     1
 79
     5
176
     1
170
     0
176
     1
171
     0
176
     1
290
     0
176
     1
 93
       13
176
     1
 44
0.0
176
     1
173
     0
176
     1
  0
VISUALSTYLE
  5
2E
102
{ACAD_REACTORS
330
2A
102
}
330
2A
100
AcDbVisualStyle
  2
GouraudWithEdges
 70
     3
177
     2
291
     1
 71
     2
176
     1
 72
     2
176
     1
 73
     1
176
     1
 90
        2
176
     1
 40
-0.6
176
     1
 41
30.0
176
     1
 62
     5
 63
     7
421
 16777215
176
     1
 74
     1
176
     1
 91
        4
176
     1
 64
     7
176
     1
 65
   257
176
     1
 75
     1
176
     1
175
     1
176
     1
 42
1.0
176
     1
 92
        0
176
     1
 66
   257
176
     1
 43
1.0
176
     1
 76
     1
176
     1
 77
     6
176
     1
 78
     2
176
     1
 67
     7
176
     1
 79
     5
176
     1
170
     0
176
     1
171
     0
176
     1
290
     0
176
     1
 93
       13
176
     1
 44
0.0
176
     1
173
     0
176
     1
  0
VISUALSTYLE
  5
38
102
{ACAD_REACTORS
330
2A
102
}
330
2A
100
AcDbVisualStyle
  2
Linepattern
 70
    14
177
     2
291
     1
 71
     2
176
     1
 72
     2
176
     1
 73
     0
176
     1
 90
        0
176
     1
 40
-0.6
176
     1
 41
-30.0
176
     1
 62
     5
 63
     7
421
 16777215
176
     1
 74
     1
176
     1
 91
        4
176
     1
 64
     7
176
     1
 65
   257
176
     1
 75
     7
176
     1
175
     7
176
     1
 42
1.0
176
     1
 92
        8
176
     1
 66
     7
176
     1
 43
1.0
176
     1
 76
     1
176
     1
 77
     6
176
     1
 78
     2
176
     1
 67
     7
176
     1
 79
     5
176
     1
170
     0
176
     1
171
     0
176
     1
290
     0
176
     1
 93
        1
176
     1
 44
0.0
176
     1
173
     0
176
     1
  0
VISUALSTYLE
  5
33
102
{ACAD_REACTORS
330
2A
102
}
330
2A
100
AcDbVisualStyle
  2
Realistic
 70
     8
177
     2
291
     0
 71
     2
176
     1
 72
     2
176
     1
 73
     0
176
     1
 90
        0
176
     1
 40
-0.6
176
     1
 41
-30.0
176
     1
 62
     5
 63
     7
421
 16777215
176
     1
 74
     1
176
     1
 91
        0
176
     1
 64
     7
176
     1
 65
   257
176
     1
 75
     1
176
     1
175
     1
176
     1
 42
1.0
176
     1
 92
        8
176
     1
 66
     8
424
  7895160
176
     1
 43
1.0
176
     1
 76
     1
176
     1
 77
     6
176
     1
 78
     2
176
     1
 67
     7
176
     1
 79
     5
176
     1
170
     0
176
     1
171
     0
176
     1
290
     0
176
     1
 93
       13
176
     1
 44
0.0
176
     1
173
     0
176
     1
  0
VISUALSTYLE
  5
37
102
{ACAD_REACTORS
330
2A
102
}
330
2A
100
AcDbVisualStyle
  2
Thicken
 70
    13
177
     2
291
     1
 71
     2
176
     1
 72
     2
176
     1
 73
     0
176
     1
 90
        0
176
     1
 40
-0.6
176
     1
 41
-30.0
176
     1
 62
     5
 63
     7
421
 16777215
176
     1
 74
     1
176
     1
 91
        4
176
     1
 64
     7
176
     1
 65
   257
176
     1
 75
     1
176
     1
175
     1
176
     1
 42
1.0
176
     1
 92
       12
176
     1
 66
     7
176
     1
 43
1.0
176
     1
 76
     1
176
     1
 77
     6
176
     1
 78
     2
176
     1
 67
     7
176
     1
 79
     5
176
     1
170
     0
176
     1
171
     0
176
     1
290
     0
176
     1
 93
        1
176
     1
 44
0.0
176
     1
173
     0
176
     1
  0
ENDSEC
  0
EOF
